%TF.GenerationSoftware,KiCad,Pcbnew,9.0.8-9.0.8~ubuntu24.04.1*%
%TF.CreationDate,2026-05-04T20:39:49+03:00*%
%TF.ProjectId,PCB_mc,5043425f-6d63-42e6-9b69-6361645f7063,rev?*%
%TF.SameCoordinates,Original*%
%TF.FileFunction,Copper,L2,Bot*%
%TF.FilePolarity,Positive*%
%FSLAX46Y46*%
G04 Gerber Fmt 4.6, Leading zero omitted, Abs format (unit mm)*
G04 Created by KiCad (PCBNEW 9.0.8-9.0.8~ubuntu24.04.1) date 2026-05-04 20:39:49*
%MOMM*%
%LPD*%
G01*
G04 APERTURE LIST*
G04 Aperture macros list*
%AMRoundRect*
0 Rectangle with rounded corners*
0 $1 Rounding radius*
0 $2 $3 $4 $5 $6 $7 $8 $9 X,Y pos of 4 corners*
0 Add a 4 corners polygon primitive as box body*
4,1,4,$2,$3,$4,$5,$6,$7,$8,$9,$2,$3,0*
0 Add four circle primitives for the rounded corners*
1,1,$1+$1,$2,$3*
1,1,$1+$1,$4,$5*
1,1,$1+$1,$6,$7*
1,1,$1+$1,$8,$9*
0 Add four rect primitives between the rounded corners*
20,1,$1+$1,$2,$3,$4,$5,0*
20,1,$1+$1,$4,$5,$6,$7,0*
20,1,$1+$1,$6,$7,$8,$9,0*
20,1,$1+$1,$8,$9,$2,$3,0*%
G04 Aperture macros list end*
%TA.AperFunction,ComponentPad*%
%ADD10RoundRect,0.300000X-0.450000X-1.000000X0.450000X-1.000000X0.450000X1.000000X-0.450000X1.000000X0*%
%TD*%
%TA.AperFunction,HeatsinkPad*%
%ADD11C,0.500000*%
%TD*%
%TA.AperFunction,HeatsinkPad*%
%ADD12R,1.900000X2.900000*%
%TD*%
%TA.AperFunction,HeatsinkPad*%
%ADD13C,0.600000*%
%TD*%
%TA.AperFunction,ComponentPad*%
%ADD14R,2.000000X2.000000*%
%TD*%
%TA.AperFunction,ComponentPad*%
%ADD15C,2.000000*%
%TD*%
%TA.AperFunction,ComponentPad*%
%ADD16R,3.200000X2.000000*%
%TD*%
%TA.AperFunction,ComponentPad*%
%ADD17C,2.200000*%
%TD*%
%TA.AperFunction,HeatsinkPad*%
%ADD18O,2.100000X1.000000*%
%TD*%
%TA.AperFunction,HeatsinkPad*%
%ADD19O,1.800000X1.000000*%
%TD*%
%TA.AperFunction,ComponentPad*%
%ADD20O,3.000000X2.500000*%
%TD*%
%TA.AperFunction,ComponentPad*%
%ADD21RoundRect,1.500000X-1.500000X1.500000X-1.500000X-1.500000X1.500000X-1.500000X1.500000X1.500000X0*%
%TD*%
%TA.AperFunction,ComponentPad*%
%ADD22C,6.000000*%
%TD*%
%TA.AperFunction,ComponentPad*%
%ADD23RoundRect,0.250000X-0.725000X0.600000X-0.725000X-0.600000X0.725000X-0.600000X0.725000X0.600000X0*%
%TD*%
%TA.AperFunction,ComponentPad*%
%ADD24O,1.950000X1.700000*%
%TD*%
%TA.AperFunction,ViaPad*%
%ADD25C,0.600000*%
%TD*%
%TA.AperFunction,ViaPad*%
%ADD26C,0.700000*%
%TD*%
%TA.AperFunction,ViaPad*%
%ADD27C,5.000000*%
%TD*%
%TA.AperFunction,ViaPad*%
%ADD28C,0.500000*%
%TD*%
%TA.AperFunction,Conductor*%
%ADD29C,1.000000*%
%TD*%
%TA.AperFunction,Conductor*%
%ADD30C,0.800000*%
%TD*%
%TA.AperFunction,Conductor*%
%ADD31C,0.600000*%
%TD*%
G04 APERTURE END LIST*
D10*
%TO.P,SW6,1,1*%
%TO.N,Net-(D3-A)*%
X135500000Y-83000000D03*
%TO.P,SW6,2,3*%
%TO.N,+3V3*%
X140000000Y-83000000D03*
%TO.P,SW6,3,4*%
%TO.N,Net-(D4-A)*%
X144500000Y-83000000D03*
%TD*%
D11*
%TO.P,U3,9,EPAD*%
%TO.N,unconnected-(U3-EPAD-Pad9)*%
X121200000Y-98340000D03*
X121200000Y-99540000D03*
X121200000Y-100740000D03*
D12*
X121900000Y-99540000D03*
D11*
X122600000Y-98340000D03*
X122600000Y-99540000D03*
X122600000Y-100740000D03*
%TD*%
D13*
%TO.P,U1,41,GND*%
%TO.N,GND*%
X155100000Y-89760000D03*
X155100000Y-91160000D03*
X155800000Y-89060000D03*
X155800000Y-90460000D03*
X155800000Y-91860000D03*
X156500000Y-89760000D03*
X156500000Y-91160000D03*
X157200000Y-89060000D03*
X157200000Y-90460000D03*
X157200000Y-91860000D03*
X157900000Y-89760000D03*
X157900000Y-91160000D03*
%TD*%
D14*
%TO.P,SW5,A,A*%
%TO.N,GP_14*%
X175300000Y-128000000D03*
D15*
%TO.P,SW5,B,B*%
%TO.N,IO_47*%
X175300000Y-133000000D03*
%TO.P,SW5,C,C*%
%TO.N,GND*%
X175300000Y-130500000D03*
D16*
%TO.P,SW5,MP*%
%TO.N,N/C*%
X182800000Y-124900000D03*
X182800000Y-136100000D03*
D15*
%TO.P,SW5,S1,S1*%
%TO.N,GND*%
X189800000Y-133000000D03*
%TO.P,SW5,S2,S2*%
%TO.N,Net-(U1-IO21)*%
X189800000Y-128000000D03*
%TD*%
D17*
%TO.P,SW4,1,1*%
%TO.N,Net-(U1-IO13)*%
X157000000Y-128000000D03*
%TO.P,SW4,2,2*%
%TO.N,GND*%
X159540000Y-134350000D03*
%TD*%
%TO.P,SW3,1,1*%
%TO.N,GND*%
X137750000Y-128000000D03*
%TO.P,SW3,2,2*%
%TO.N,Net-(U1-IO12)*%
X140290000Y-134350000D03*
%TD*%
%TO.P,SW2,1,1*%
%TO.N,GND*%
X118500000Y-128000000D03*
%TO.P,SW2,2,2*%
%TO.N,Net-(U1-IO11)*%
X121040000Y-134350000D03*
%TD*%
%TO.P,SW1,1,1*%
%TO.N,GND*%
X99250000Y-128000000D03*
%TO.P,SW1,2,2*%
%TO.N,Net-(U1-IO10)*%
X101790000Y-134350000D03*
%TD*%
D18*
%TO.P,J1,S1,SHIELD*%
%TO.N,GND*%
X98425000Y-109930000D03*
D19*
X94245000Y-109930000D03*
D18*
X98425000Y-118570000D03*
D19*
X94245000Y-118570000D03*
%TD*%
D20*
%TO.P,SW7,1,1*%
%TO.N,GND*%
X150250000Y-112000000D03*
X162750000Y-112000000D03*
%TO.P,SW7,2,2*%
%TO.N,Net-(U1-IO0)*%
X150250000Y-117000000D03*
X162750000Y-117000000D03*
%TD*%
%TO.P,SW8,1,1*%
%TO.N,GND*%
X117250000Y-112000000D03*
X129750000Y-112000000D03*
%TO.P,SW8,2,2*%
%TO.N,Net-(U1-EN)*%
X117250000Y-117000000D03*
X129750000Y-117000000D03*
%TD*%
D21*
%TO.P,BT1,1,+*%
%TO.N,+BATT*%
X100600000Y-88840000D03*
D22*
%TO.P,BT1,2,-*%
%TO.N,GND*%
X100600000Y-96040000D03*
%TD*%
D23*
%TO.P,lcd1,1,GND*%
%TO.N,GND*%
X172500000Y-86000000D03*
D24*
%TO.P,lcd1,2,VCC*%
%TO.N,+3.3V*%
X172500000Y-88500000D03*
%TO.P,lcd1,3,SDA*%
%TO.N,Net-(U1-IO4)*%
X172500000Y-91000000D03*
%TO.P,lcd1,4,SCL*%
%TO.N,Net-(U1-IO5)*%
X172500000Y-93500000D03*
%TD*%
D25*
%TO.N,+3V3*%
X132000000Y-78500000D03*
D26*
%TO.N,GND*%
X122500000Y-83902500D03*
X126200000Y-78500000D03*
D27*
X97000000Y-80000000D03*
X187000000Y-80000000D03*
D28*
X129800000Y-83900000D03*
%TO.N,+3.3V*%
X147200000Y-84010000D03*
X169350000Y-103550000D03*
D26*
X142950000Y-103550000D03*
X143000000Y-95400000D03*
D28*
%TO.N,+5V*%
X101000000Y-111000000D03*
X123500000Y-94000000D03*
X100300000Y-117200000D03*
D26*
%TO.N,Net-(U1-IO5)*%
X151000000Y-87820000D03*
%TO.N,Net-(U1-IO4)*%
X150900000Y-86550000D03*
D28*
%TO.N,Net-(U1-IO10)*%
X153000000Y-105000000D03*
%TO.N,Net-(U1-IO11)*%
X155000000Y-105000000D03*
%TO.N,Net-(U1-IO12)*%
X157000000Y-105000000D03*
%TO.N,Net-(U1-IO13)*%
X158635000Y-104865000D03*
%TO.N,Net-(U3-CE)*%
X116100000Y-102800000D03*
X126000000Y-95200000D03*
%TO.N,D-*%
X102500000Y-114000000D03*
X147500000Y-98000000D03*
%TO.N,D+*%
X147600000Y-99300000D03*
X103500000Y-115500000D03*
%TO.N,Net-(D3-A)*%
X164500000Y-94500000D03*
X142750000Y-90250000D03*
%TO.N,Net-(D4-A)*%
X146400000Y-90250000D03*
X164500000Y-93000000D03*
%TO.N,GP_14*%
X159905000Y-104800000D03*
%TO.N,Net-(U1-IO21)*%
X162000000Y-105025000D03*
%TO.N,IO_47*%
X168000000Y-107500000D03*
X164450000Y-104950000D03*
%TD*%
D29*
%TO.N,+3V3*%
X140000000Y-83000000D02*
X137000000Y-86000000D01*
X137000000Y-86000000D02*
X133000000Y-86000000D01*
X132000000Y-85000000D02*
X132000000Y-78500000D01*
X133000000Y-86000000D02*
X132000000Y-85000000D01*
D30*
%TO.N,GND*%
X126200000Y-83902500D02*
X126200000Y-78500000D01*
X129797500Y-83902500D02*
X129800000Y-83900000D01*
X126200000Y-83902500D02*
X129797500Y-83902500D01*
X189800000Y-132800000D02*
X189800000Y-133440000D01*
X122500000Y-83902500D02*
X126200000Y-83902500D01*
D29*
%TO.N,+3.3V*%
X147200000Y-85600000D02*
X144700000Y-88100000D01*
X142300000Y-95400000D02*
X143000000Y-95400000D01*
X144700000Y-88100000D02*
X141800000Y-88100000D01*
X140700000Y-93800000D02*
X142300000Y-95400000D01*
X147200000Y-84010000D02*
X147200000Y-85600000D01*
X142950000Y-103550000D02*
X169350000Y-103550000D01*
X141800000Y-88100000D02*
X140700000Y-89200000D01*
X140700000Y-89200000D02*
X140700000Y-93800000D01*
D31*
%TO.N,+5V*%
X118000000Y-94000000D02*
X123500000Y-94000000D01*
X100290381Y-117209619D02*
X100300000Y-117200000D01*
X100300000Y-117200000D02*
X101000000Y-116500000D01*
X101000000Y-111000000D02*
X118000000Y-94000000D01*
X101000000Y-116500000D02*
X101000000Y-111000000D01*
D30*
%TO.N,Net-(U1-IO5)*%
X172500000Y-93500000D02*
X169500000Y-93500000D01*
X169500000Y-93500000D02*
X163820000Y-87820000D01*
X163820000Y-87820000D02*
X151000000Y-87820000D01*
%TO.N,Net-(U1-IO4)*%
X150950000Y-86550000D02*
X164550000Y-86550000D01*
X164550000Y-86550000D02*
X169000000Y-91000000D01*
X169000000Y-91000000D02*
X172500000Y-91000000D01*
%TO.N,Net-(U1-IO10)*%
X120000000Y-120500000D02*
X150750000Y-120500000D01*
X153000000Y-118250000D02*
X153000000Y-105000000D01*
X102140000Y-134000000D02*
X106500000Y-134000000D01*
X101790000Y-134350000D02*
X102140000Y-134000000D01*
X150750000Y-120500000D02*
X153000000Y-118250000D01*
X106500000Y-134000000D02*
X120000000Y-120500000D01*
%TO.N,Net-(U1-IO11)*%
X132250000Y-122250000D02*
X151250000Y-122250000D01*
X151250000Y-122250000D02*
X155000000Y-118500000D01*
X121390000Y-134000000D02*
X127500000Y-134000000D01*
X127500000Y-134000000D02*
X129250000Y-132250000D01*
X121040000Y-134350000D02*
X121390000Y-134000000D01*
X129250000Y-125250000D02*
X132250000Y-122250000D01*
X129250000Y-132250000D02*
X129250000Y-125250000D01*
X155000000Y-118500000D02*
X155000000Y-105000000D01*
%TO.N,Net-(U1-IO12)*%
X157000000Y-122000000D02*
X157000000Y-105000000D01*
X140890000Y-133750000D02*
X145250000Y-133750000D01*
X139540000Y-134350000D02*
X140140000Y-133750000D01*
X145250000Y-133750000D02*
X157000000Y-122000000D01*
%TO.N,Net-(U1-IO13)*%
X157000000Y-128000000D02*
X158635000Y-126365000D01*
X158635000Y-126365000D02*
X158635000Y-104865000D01*
D31*
%TO.N,Net-(U3-CE)*%
X119600000Y-95200000D02*
X116100000Y-98700000D01*
X126000000Y-95200000D02*
X119600000Y-95200000D01*
X116100000Y-98700000D02*
X116100000Y-102800000D01*
%TO.N,D-*%
X137500000Y-104000000D02*
X143500000Y-98000000D01*
X143500000Y-98000000D02*
X147500000Y-98000000D01*
X107000000Y-114000000D02*
X117000000Y-104000000D01*
X117000000Y-104000000D02*
X137500000Y-104000000D01*
X102500000Y-114000000D02*
X107000000Y-114000000D01*
%TO.N,D+*%
X108000000Y-115500000D02*
X103500000Y-115500000D01*
X137500000Y-106000000D02*
X117500000Y-106000000D01*
X117500000Y-106000000D02*
X108000000Y-115500000D01*
X147600000Y-99300000D02*
X144200000Y-99300000D01*
X144200000Y-99300000D02*
X137500000Y-106000000D01*
%TO.N,Net-(D3-A)*%
X142750000Y-90250000D02*
X147000000Y-94500000D01*
X147000000Y-94500000D02*
X164500000Y-94500000D01*
%TO.N,Net-(D4-A)*%
X146400000Y-90250000D02*
X146750000Y-90250000D01*
X146750000Y-90250000D02*
X149500000Y-93000000D01*
X149500000Y-93000000D02*
X164500000Y-93000000D01*
D30*
%TO.N,GP_14*%
X164000000Y-109000000D02*
X161000000Y-109000000D01*
X175300000Y-128000000D02*
X175300000Y-120300000D01*
X159905000Y-107905000D02*
X159905000Y-104800000D01*
X161000000Y-109000000D02*
X159905000Y-107905000D01*
X175300000Y-120300000D02*
X164000000Y-109000000D01*
%TO.N,Net-(U1-IO21)*%
X189800000Y-128000000D02*
X171050000Y-109250000D01*
X171050000Y-109250000D02*
X166225000Y-109250000D01*
X166225000Y-109250000D02*
X162000000Y-105025000D01*
D29*
%TO.N,IO_47*%
X165500000Y-105000000D02*
X164500000Y-105000000D01*
X168000000Y-107500000D02*
X165500000Y-105000000D01*
%TD*%
%TA.AperFunction,Conductor*%
%TO.N,GND*%
G36*
X133846288Y-75519454D02*
G01*
X133927070Y-75573430D01*
X133981046Y-75654212D01*
X134000000Y-75749500D01*
X134000000Y-81250000D01*
X134125316Y-81250000D01*
X134220604Y-81268954D01*
X134301386Y-81322930D01*
X134355362Y-81403712D01*
X134374316Y-81499000D01*
X134355362Y-81594288D01*
X134336151Y-81631474D01*
X134324216Y-81650468D01*
X134324212Y-81650476D01*
X134264632Y-81820746D01*
X134264630Y-81820754D01*
X134249500Y-81955031D01*
X134249500Y-84044968D01*
X134264630Y-84179245D01*
X134264631Y-84179251D01*
X134264632Y-84179255D01*
X134324211Y-84349522D01*
X134324212Y-84349523D01*
X134324214Y-84349529D01*
X134420180Y-84502257D01*
X134420182Y-84502259D01*
X134420184Y-84502262D01*
X134492355Y-84574433D01*
X134546329Y-84655212D01*
X134565283Y-84750500D01*
X134546329Y-84845788D01*
X134492353Y-84926570D01*
X134411571Y-84980546D01*
X134316283Y-84999500D01*
X133517561Y-84999500D01*
X133422273Y-84980546D01*
X133341491Y-84926570D01*
X133073430Y-84658509D01*
X133019454Y-84577727D01*
X133000500Y-84482439D01*
X133000500Y-78401459D01*
X133000499Y-78401454D01*
X132962052Y-78208169D01*
X132962051Y-78208167D01*
X132962051Y-78208165D01*
X132886632Y-78026086D01*
X132777139Y-77862218D01*
X132637782Y-77722861D01*
X132473914Y-77613368D01*
X132473911Y-77613366D01*
X132473908Y-77613365D01*
X132291835Y-77537949D01*
X132291830Y-77537947D01*
X132098545Y-77499500D01*
X132098541Y-77499500D01*
X131901459Y-77499500D01*
X131901454Y-77499500D01*
X131708169Y-77537947D01*
X131708164Y-77537949D01*
X131526091Y-77613365D01*
X131526084Y-77613369D01*
X131362221Y-77722858D01*
X131222858Y-77862221D01*
X131113369Y-78026084D01*
X131113365Y-78026091D01*
X131037949Y-78208164D01*
X131037947Y-78208169D01*
X130999500Y-78401454D01*
X130999500Y-78401459D01*
X130999500Y-84901460D01*
X130999500Y-85098540D01*
X131037949Y-85291836D01*
X131057692Y-85339500D01*
X131113368Y-85473914D01*
X131222861Y-85637782D01*
X131362218Y-85777139D01*
X131362220Y-85777140D01*
X132362219Y-86777140D01*
X132526086Y-86886632D01*
X132526088Y-86886632D01*
X132526090Y-86886634D01*
X132708165Y-86962052D01*
X132708168Y-86962053D01*
X132861548Y-86992562D01*
X132901460Y-87000501D01*
X133110829Y-87000501D01*
X133110849Y-87000500D01*
X137098541Y-87000500D01*
X137254387Y-86969500D01*
X137291836Y-86962051D01*
X137345165Y-86939961D01*
X137473914Y-86886632D01*
X137637782Y-86777139D01*
X137777139Y-86637782D01*
X137777139Y-86637780D01*
X137797639Y-86617281D01*
X137797640Y-86617278D01*
X139541491Y-84873430D01*
X139622272Y-84819454D01*
X139717560Y-84800500D01*
X140494954Y-84800500D01*
X140494968Y-84800499D01*
X140605079Y-84788091D01*
X140629255Y-84785368D01*
X140799522Y-84725789D01*
X140799527Y-84725785D01*
X140799529Y-84725785D01*
X140952257Y-84629819D01*
X140952256Y-84629819D01*
X140952262Y-84629816D01*
X141079816Y-84502262D01*
X141175789Y-84349522D01*
X141235368Y-84179255D01*
X141246177Y-84083322D01*
X141250499Y-84044968D01*
X141250500Y-84044953D01*
X141250500Y-81955046D01*
X141250499Y-81955031D01*
X141235369Y-81820754D01*
X141235368Y-81820745D01*
X141175789Y-81650478D01*
X141175783Y-81650468D01*
X141163849Y-81631474D01*
X141129202Y-81540707D01*
X141131927Y-81443591D01*
X141171610Y-81354909D01*
X141242210Y-81288165D01*
X141332977Y-81253518D01*
X141374684Y-81250000D01*
X143125316Y-81250000D01*
X143220604Y-81268954D01*
X143301386Y-81322930D01*
X143355362Y-81403712D01*
X143374316Y-81499000D01*
X143355362Y-81594288D01*
X143336151Y-81631474D01*
X143324216Y-81650468D01*
X143324212Y-81650476D01*
X143264632Y-81820746D01*
X143264630Y-81820754D01*
X143249500Y-81955031D01*
X143249500Y-84044968D01*
X143264630Y-84179245D01*
X143264631Y-84179251D01*
X143264632Y-84179255D01*
X143324211Y-84349522D01*
X143324212Y-84349523D01*
X143324214Y-84349529D01*
X143420180Y-84502257D01*
X143420182Y-84502259D01*
X143420184Y-84502262D01*
X143547738Y-84629816D01*
X143547740Y-84629817D01*
X143547742Y-84629819D01*
X143700470Y-84725785D01*
X143700473Y-84725786D01*
X143700478Y-84725789D01*
X143870745Y-84785368D01*
X143870754Y-84785369D01*
X144005031Y-84800499D01*
X144005046Y-84800500D01*
X144994954Y-84800500D01*
X144994968Y-84800499D01*
X145105079Y-84788091D01*
X145129255Y-84785368D01*
X145299522Y-84725789D01*
X145299527Y-84725785D01*
X145299529Y-84725785D01*
X145452257Y-84629819D01*
X145452256Y-84629819D01*
X145452262Y-84629816D01*
X145579816Y-84502262D01*
X145675789Y-84349522D01*
X145715474Y-84236107D01*
X145764835Y-84152429D01*
X145842463Y-84094008D01*
X145936538Y-84069741D01*
X146032739Y-84083322D01*
X146116420Y-84132684D01*
X146174841Y-84210312D01*
X146199108Y-84304387D01*
X146199500Y-84318349D01*
X146199500Y-85082440D01*
X146180546Y-85177728D01*
X146126570Y-85258510D01*
X144358510Y-87026570D01*
X144277728Y-87080546D01*
X144182440Y-87099500D01*
X141701459Y-87099500D01*
X141604812Y-87118724D01*
X141532243Y-87133159D01*
X141508163Y-87137949D01*
X141456440Y-87159374D01*
X141456439Y-87159374D01*
X141326088Y-87213367D01*
X141326084Y-87213369D01*
X141162219Y-87322860D01*
X141162216Y-87322862D01*
X141022860Y-87462217D01*
X141022861Y-87462218D01*
X141022858Y-87462221D01*
X140062221Y-88422858D01*
X140062218Y-88422861D01*
X140062217Y-88422860D01*
X139922862Y-88562216D01*
X139922860Y-88562219D01*
X139813369Y-88726084D01*
X139813365Y-88726091D01*
X139737949Y-88908164D01*
X139737947Y-88908169D01*
X139699500Y-89101454D01*
X139699500Y-89101459D01*
X139699500Y-93898541D01*
X139703998Y-93921153D01*
X139717635Y-93989709D01*
X139717635Y-93989711D01*
X139735362Y-94078832D01*
X139737948Y-94091831D01*
X139737952Y-94091843D01*
X139813365Y-94273908D01*
X139813366Y-94273911D01*
X139813368Y-94273914D01*
X139848552Y-94326570D01*
X139917835Y-94430261D01*
X139922861Y-94437782D01*
X140062218Y-94577139D01*
X140062220Y-94577140D01*
X141662219Y-96177140D01*
X141826086Y-96286632D01*
X141826088Y-96286632D01*
X141826090Y-96286634D01*
X141947472Y-96336912D01*
X142008165Y-96362052D01*
X142169389Y-96394121D01*
X142169388Y-96394121D01*
X142185204Y-96397266D01*
X142201459Y-96400500D01*
X142201460Y-96400500D01*
X143098541Y-96400500D01*
X143291835Y-96362051D01*
X143473914Y-96286632D01*
X143637782Y-96177139D01*
X143777139Y-96037782D01*
X143886632Y-95873914D01*
X143962051Y-95691835D01*
X144000500Y-95498541D01*
X144000500Y-95301459D01*
X143982187Y-95209393D01*
X143962052Y-95108169D01*
X143962051Y-95108167D01*
X143962051Y-95108165D01*
X143886632Y-94926086D01*
X143777139Y-94762218D01*
X143637782Y-94622861D01*
X143570958Y-94578211D01*
X143473915Y-94513369D01*
X143473914Y-94513368D01*
X143473911Y-94513366D01*
X143473908Y-94513365D01*
X143291835Y-94437949D01*
X143291830Y-94437947D01*
X143098545Y-94399500D01*
X143098541Y-94399500D01*
X142817561Y-94399500D01*
X142722273Y-94380546D01*
X142641491Y-94326570D01*
X141773430Y-93458509D01*
X141719454Y-93377727D01*
X141700500Y-93282439D01*
X141700500Y-90933717D01*
X141719454Y-90838429D01*
X141773430Y-90757647D01*
X141854212Y-90703671D01*
X141949500Y-90684717D01*
X142044788Y-90703671D01*
X142125570Y-90757647D01*
X142128208Y-90760285D01*
X142128211Y-90760289D01*
X146489711Y-95121789D01*
X146620821Y-95209394D01*
X146620823Y-95209394D01*
X146620825Y-95209396D01*
X146687921Y-95237188D01*
X146766503Y-95269738D01*
X146921158Y-95300500D01*
X146921161Y-95300500D01*
X164578842Y-95300500D01*
X164733497Y-95269737D01*
X164879179Y-95209394D01*
X165010289Y-95121789D01*
X165121789Y-95010289D01*
X165209394Y-94879179D01*
X165269737Y-94733497D01*
X165300500Y-94578842D01*
X165300500Y-94421158D01*
X165292150Y-94379179D01*
X165269738Y-94266507D01*
X165269737Y-94266505D01*
X165269737Y-94266503D01*
X165209394Y-94120821D01*
X165190031Y-94091843D01*
X165121791Y-93989714D01*
X165121789Y-93989711D01*
X165058144Y-93926066D01*
X165004171Y-93845288D01*
X164985217Y-93750000D01*
X165004171Y-93654712D01*
X165058144Y-93573933D01*
X165121789Y-93510289D01*
X165209394Y-93379179D01*
X165269737Y-93233497D01*
X165300500Y-93078842D01*
X165300500Y-92921158D01*
X165269737Y-92766503D01*
X165209394Y-92620821D01*
X165208984Y-92620208D01*
X165121791Y-92489714D01*
X165121789Y-92489711D01*
X165010289Y-92378211D01*
X165000214Y-92371479D01*
X164879180Y-92290606D01*
X164879173Y-92290603D01*
X164733497Y-92230263D01*
X164733492Y-92230261D01*
X164578846Y-92199500D01*
X164578842Y-92199500D01*
X149934717Y-92199500D01*
X149839429Y-92180546D01*
X149758647Y-92126570D01*
X148565794Y-90933717D01*
X147260289Y-89628211D01*
X147260285Y-89628208D01*
X147129180Y-89540606D01*
X147129173Y-89540603D01*
X146983497Y-89480263D01*
X146983492Y-89480261D01*
X146828846Y-89449500D01*
X146828842Y-89449500D01*
X146321158Y-89449500D01*
X146321153Y-89449500D01*
X146166507Y-89480261D01*
X146166502Y-89480263D01*
X146020826Y-89540603D01*
X146020819Y-89540606D01*
X145889714Y-89628208D01*
X145778208Y-89739714D01*
X145690606Y-89870819D01*
X145690603Y-89870826D01*
X145630263Y-90016502D01*
X145630261Y-90016507D01*
X145599500Y-90171153D01*
X145599500Y-90328846D01*
X145630261Y-90483492D01*
X145630263Y-90483497D01*
X145690603Y-90629173D01*
X145690606Y-90629180D01*
X145778208Y-90760285D01*
X145778211Y-90760289D01*
X145889711Y-90871789D01*
X145889714Y-90871791D01*
X146020819Y-90959393D01*
X146020820Y-90959393D01*
X146020821Y-90959394D01*
X146166503Y-91019737D01*
X146166505Y-91019737D01*
X146166507Y-91019738D01*
X146317148Y-91049702D01*
X146321158Y-91050500D01*
X146321163Y-91050500D01*
X146333332Y-91051699D01*
X146333100Y-91054044D01*
X146410570Y-91069454D01*
X146491352Y-91123430D01*
X147632291Y-92264369D01*
X148642353Y-93274430D01*
X148696329Y-93355212D01*
X148715283Y-93450500D01*
X148696329Y-93545788D01*
X148642353Y-93626570D01*
X148561571Y-93680546D01*
X148466283Y-93699500D01*
X147434718Y-93699500D01*
X147339430Y-93680546D01*
X147258648Y-93626570D01*
X145285470Y-91653392D01*
X143260289Y-89628211D01*
X143247846Y-89619897D01*
X143153020Y-89556536D01*
X143084321Y-89487837D01*
X143047141Y-89398077D01*
X143047141Y-89300922D01*
X143084321Y-89211163D01*
X143153020Y-89142464D01*
X143242780Y-89105284D01*
X143291357Y-89100500D01*
X144798539Y-89100500D01*
X144798540Y-89100500D01*
X144798541Y-89100500D01*
X144895188Y-89081275D01*
X144991836Y-89062051D01*
X145045165Y-89039961D01*
X145173914Y-88986632D01*
X145337782Y-88877139D01*
X145477139Y-88737782D01*
X145477141Y-88737778D01*
X147753615Y-86461304D01*
X150049500Y-86461304D01*
X150049500Y-86638695D01*
X150084104Y-86812659D01*
X150084105Y-86812661D01*
X150084106Y-86812666D01*
X150151987Y-86976547D01*
X150151988Y-86976549D01*
X150151989Y-86976550D01*
X150223836Y-87084076D01*
X150261016Y-87173835D01*
X150261017Y-87270990D01*
X150223839Y-87360748D01*
X150201988Y-87393449D01*
X150134104Y-87557340D01*
X150099500Y-87731304D01*
X150099500Y-87908695D01*
X150134104Y-88082659D01*
X150134105Y-88082661D01*
X150134106Y-88082666D01*
X150201987Y-88246547D01*
X150300536Y-88394035D01*
X150425965Y-88519464D01*
X150573453Y-88618013D01*
X150737334Y-88685894D01*
X150911309Y-88720500D01*
X163343860Y-88720500D01*
X163439148Y-88739454D01*
X163519930Y-88793430D01*
X168925964Y-94199464D01*
X168955072Y-94218913D01*
X169073453Y-94298013D01*
X169155393Y-94331953D01*
X169168872Y-94337536D01*
X169168875Y-94337538D01*
X169237329Y-94365893D01*
X169237330Y-94365893D01*
X169237334Y-94365895D01*
X169411308Y-94400500D01*
X169411309Y-94400500D01*
X171262464Y-94400500D01*
X171357752Y-94419454D01*
X171438534Y-94473430D01*
X171495208Y-94530104D01*
X171667184Y-94655051D01*
X171856588Y-94751557D01*
X172058757Y-94817246D01*
X172132601Y-94828941D01*
X172268703Y-94850499D01*
X172268710Y-94850499D01*
X172268713Y-94850500D01*
X172268716Y-94850500D01*
X172731284Y-94850500D01*
X172731287Y-94850500D01*
X172731290Y-94850499D01*
X172731296Y-94850499D01*
X172830476Y-94834789D01*
X172941243Y-94817246D01*
X173143412Y-94751557D01*
X173332816Y-94655051D01*
X173504792Y-94530104D01*
X173655104Y-94379792D01*
X173780051Y-94207816D01*
X173876557Y-94018412D01*
X173942246Y-93816243D01*
X173960736Y-93699500D01*
X173975499Y-93606296D01*
X173975500Y-93606284D01*
X173975500Y-93393715D01*
X173975499Y-93393703D01*
X173949612Y-93230262D01*
X173942246Y-93183757D01*
X173876557Y-92981588D01*
X173780051Y-92792184D01*
X173655104Y-92620208D01*
X173504792Y-92469896D01*
X173479396Y-92451445D01*
X173413449Y-92380106D01*
X173379820Y-92288956D01*
X173383633Y-92191876D01*
X173424306Y-92103645D01*
X173479395Y-92048555D01*
X173504792Y-92030104D01*
X173655104Y-91879792D01*
X173780051Y-91707816D01*
X173876557Y-91518412D01*
X173942246Y-91316243D01*
X173975500Y-91106287D01*
X173975500Y-90893713D01*
X173975499Y-90893710D01*
X173975499Y-90893703D01*
X173942246Y-90683759D01*
X173942246Y-90683757D01*
X173876557Y-90481588D01*
X173780051Y-90292184D01*
X173655104Y-90120208D01*
X173504792Y-89969896D01*
X173479396Y-89951445D01*
X173413449Y-89880106D01*
X173379820Y-89788956D01*
X173383633Y-89691876D01*
X173424306Y-89603645D01*
X173479395Y-89548555D01*
X173504792Y-89530104D01*
X173655104Y-89379792D01*
X173780051Y-89207816D01*
X173876557Y-89018412D01*
X173942246Y-88816243D01*
X173975500Y-88606287D01*
X173975500Y-88393713D01*
X173975499Y-88393710D01*
X173975499Y-88393703D01*
X173942246Y-88183759D01*
X173942246Y-88183757D01*
X173876557Y-87981588D01*
X173780051Y-87792184D01*
X173655104Y-87620208D01*
X173504792Y-87469896D01*
X173504791Y-87469895D01*
X173497359Y-87463548D01*
X173499290Y-87461286D01*
X173446323Y-87403965D01*
X173412713Y-87312809D01*
X173416546Y-87215730D01*
X173457237Y-87127507D01*
X173508200Y-87075498D01*
X173617564Y-86992564D01*
X173617566Y-86992562D01*
X173708921Y-86872094D01*
X173764384Y-86731449D01*
X173764385Y-86731445D01*
X173775000Y-86643057D01*
X173775000Y-86400001D01*
X173774999Y-86400000D01*
X172757180Y-86400000D01*
X172791657Y-86380095D01*
X172880095Y-86291657D01*
X172942630Y-86183343D01*
X172975000Y-86062535D01*
X172975000Y-85937465D01*
X172942630Y-85816657D01*
X172880095Y-85708343D01*
X172791657Y-85619905D01*
X172683343Y-85557370D01*
X172562535Y-85525000D01*
X172437465Y-85525000D01*
X172316657Y-85557370D01*
X172208343Y-85619905D01*
X172119905Y-85708343D01*
X172057370Y-85816657D01*
X172025000Y-85937465D01*
X172025000Y-86062535D01*
X172057370Y-86183343D01*
X172119905Y-86291657D01*
X172208343Y-86380095D01*
X172242820Y-86400000D01*
X171225001Y-86400000D01*
X171225000Y-86400001D01*
X171225000Y-86643057D01*
X171235614Y-86731445D01*
X171235615Y-86731449D01*
X171291078Y-86872094D01*
X171382433Y-86992562D01*
X171382440Y-86992569D01*
X171491799Y-87075499D01*
X171556273Y-87148178D01*
X171588025Y-87239998D01*
X171582222Y-87336980D01*
X171539748Y-87424358D01*
X171501346Y-87462032D01*
X171502641Y-87463548D01*
X171495208Y-87469895D01*
X171344897Y-87620206D01*
X171219950Y-87792182D01*
X171123441Y-87981592D01*
X171057753Y-88183759D01*
X171024500Y-88393703D01*
X171024500Y-88606296D01*
X171057753Y-88816240D01*
X171057754Y-88816243D01*
X171123443Y-89018412D01*
X171219949Y-89207816D01*
X171344896Y-89379792D01*
X171495208Y-89530104D01*
X171520604Y-89548555D01*
X171538407Y-89567814D01*
X171559410Y-89583522D01*
X171571062Y-89603140D01*
X171586552Y-89619897D01*
X171595629Y-89644502D01*
X171609024Y-89667054D01*
X171612281Y-89689641D01*
X171620179Y-89711047D01*
X171619149Y-89737253D01*
X171622894Y-89763214D01*
X171617260Y-89785327D01*
X171616365Y-89808127D01*
X171605384Y-89831945D01*
X171598910Y-89857362D01*
X171587159Y-89871479D01*
X171575691Y-89896358D01*
X171540723Y-89935165D01*
X171531086Y-89943828D01*
X171495208Y-89969896D01*
X171433866Y-90031237D01*
X171428942Y-90035665D01*
X171392751Y-90057160D01*
X171357752Y-90080546D01*
X171351176Y-90081853D01*
X171345410Y-90085279D01*
X171303744Y-90091288D01*
X171262464Y-90099500D01*
X169476139Y-90099500D01*
X169380851Y-90080546D01*
X169300069Y-90026570D01*
X167255087Y-87981588D01*
X165124036Y-85850536D01*
X165123636Y-85850269D01*
X165064957Y-85811061D01*
X164976547Y-85751987D01*
X164976536Y-85751981D01*
X164894607Y-85718046D01*
X164812668Y-85684105D01*
X164743076Y-85670263D01*
X164638692Y-85649500D01*
X164638691Y-85649500D01*
X150861309Y-85649500D01*
X150861304Y-85649500D01*
X150687340Y-85684104D01*
X150687336Y-85684105D01*
X150687334Y-85684106D01*
X150605395Y-85718046D01*
X150523450Y-85751988D01*
X150375968Y-85850533D01*
X150250533Y-85975968D01*
X150151988Y-86123450D01*
X150151987Y-86123453D01*
X150090042Y-86273005D01*
X150084104Y-86287340D01*
X150049500Y-86461304D01*
X147753615Y-86461304D01*
X147837778Y-86377141D01*
X147837782Y-86377139D01*
X147977139Y-86237782D01*
X148086632Y-86073914D01*
X148139961Y-85945165D01*
X148162051Y-85891836D01*
X148162052Y-85891833D01*
X148193809Y-85732184D01*
X148198550Y-85708343D01*
X148200500Y-85698541D01*
X148200500Y-85356942D01*
X171225000Y-85356942D01*
X171225000Y-85599999D01*
X171225001Y-85600000D01*
X172099999Y-85600000D01*
X172100000Y-85599999D01*
X172100000Y-84850001D01*
X172900000Y-84850001D01*
X172900000Y-85599999D01*
X172900001Y-85600000D01*
X173774999Y-85600000D01*
X173775000Y-85599999D01*
X173775000Y-85356942D01*
X173764385Y-85268554D01*
X173764384Y-85268550D01*
X173708921Y-85127905D01*
X173617566Y-85007437D01*
X173617562Y-85007433D01*
X173497094Y-84916078D01*
X173356449Y-84860615D01*
X173356445Y-84860614D01*
X173268057Y-84850000D01*
X172900001Y-84850000D01*
X172900000Y-84850001D01*
X172100000Y-84850001D01*
X172099999Y-84850000D01*
X171731943Y-84850000D01*
X171643554Y-84860614D01*
X171643550Y-84860615D01*
X171502905Y-84916078D01*
X171382437Y-85007433D01*
X171382433Y-85007437D01*
X171291078Y-85127905D01*
X171235615Y-85268550D01*
X171235614Y-85268554D01*
X171225000Y-85356942D01*
X148200500Y-85356942D01*
X148200500Y-83911459D01*
X148162051Y-83718165D01*
X148086632Y-83536086D01*
X147977139Y-83372218D01*
X147837782Y-83232861D01*
X147673914Y-83123368D01*
X147673911Y-83123366D01*
X147673908Y-83123365D01*
X147491835Y-83047949D01*
X147491830Y-83047947D01*
X147298545Y-83009500D01*
X147298541Y-83009500D01*
X147101459Y-83009500D01*
X147101454Y-83009500D01*
X146908169Y-83047947D01*
X146908164Y-83047949D01*
X146726091Y-83123365D01*
X146726084Y-83123369D01*
X146562221Y-83232858D01*
X146422858Y-83372221D01*
X146313369Y-83536084D01*
X146313365Y-83536091D01*
X146237950Y-83718161D01*
X146237777Y-83718733D01*
X146237495Y-83719259D01*
X146233268Y-83729466D01*
X146232262Y-83729049D01*
X146191977Y-83804415D01*
X146116874Y-83866048D01*
X146023902Y-83894249D01*
X145927215Y-83884725D01*
X145841533Y-83838925D01*
X145779900Y-83763822D01*
X145751699Y-83670850D01*
X145750500Y-83646448D01*
X145750500Y-81955046D01*
X145750499Y-81955031D01*
X145735369Y-81820754D01*
X145735368Y-81820745D01*
X145675789Y-81650478D01*
X145675783Y-81650468D01*
X145663849Y-81631474D01*
X145629202Y-81540707D01*
X145631927Y-81443591D01*
X145671610Y-81354909D01*
X145742210Y-81288165D01*
X145832977Y-81253518D01*
X145874684Y-81250000D01*
X181999999Y-81250000D01*
X182000000Y-81250000D01*
X182000000Y-75749500D01*
X182018954Y-75654212D01*
X182072930Y-75573430D01*
X182153712Y-75519454D01*
X182249000Y-75500500D01*
X191250500Y-75500500D01*
X191345788Y-75519454D01*
X191426570Y-75573430D01*
X191480546Y-75654212D01*
X191499500Y-75749500D01*
X191499500Y-127020014D01*
X191480546Y-127115302D01*
X191426570Y-127196084D01*
X191345788Y-127250060D01*
X191250500Y-127269014D01*
X191155212Y-127250060D01*
X191074430Y-127196084D01*
X191049055Y-127166373D01*
X190944521Y-127022495D01*
X190944519Y-127022493D01*
X190944517Y-127022490D01*
X190777510Y-126855483D01*
X190777506Y-126855480D01*
X190777504Y-126855478D01*
X190586437Y-126716659D01*
X190572747Y-126709683D01*
X190375992Y-126609432D01*
X190375989Y-126609431D01*
X190375987Y-126609430D01*
X190225389Y-126560498D01*
X190151368Y-126536447D01*
X190151366Y-126536446D01*
X190151364Y-126536446D01*
X189918103Y-126499501D01*
X189918094Y-126499500D01*
X189918092Y-126499500D01*
X189681908Y-126499500D01*
X189676139Y-126499500D01*
X189580851Y-126480546D01*
X189500069Y-126426570D01*
X180637384Y-117563885D01*
X171624036Y-108550536D01*
X171517028Y-108479036D01*
X171476547Y-108451987D01*
X171394606Y-108418046D01*
X171385740Y-108414373D01*
X171385737Y-108414372D01*
X171312668Y-108384105D01*
X171243076Y-108370263D01*
X171138692Y-108349500D01*
X171138691Y-108349500D01*
X171138689Y-108349500D01*
X169101308Y-108349500D01*
X169006020Y-108330546D01*
X168925238Y-108276570D01*
X168871262Y-108195788D01*
X168852308Y-108100500D01*
X168871262Y-108005212D01*
X168881709Y-107983123D01*
X168886630Y-107973915D01*
X168886631Y-107973914D01*
X168962051Y-107791836D01*
X169000500Y-107598540D01*
X169000500Y-107401460D01*
X168962051Y-107208164D01*
X168886631Y-107026086D01*
X168777139Y-106862219D01*
X166890490Y-104975570D01*
X166836514Y-104894788D01*
X166817560Y-104799500D01*
X166836514Y-104704212D01*
X166890490Y-104623430D01*
X166971272Y-104569454D01*
X167066560Y-104550500D01*
X169448541Y-104550500D01*
X169641835Y-104512051D01*
X169823914Y-104436632D01*
X169987782Y-104327139D01*
X170127139Y-104187782D01*
X170236632Y-104023914D01*
X170312051Y-103841835D01*
X170350500Y-103648541D01*
X170350500Y-103451459D01*
X170322419Y-103310289D01*
X170312052Y-103258169D01*
X170312051Y-103258167D01*
X170312051Y-103258165D01*
X170236632Y-103076086D01*
X170127139Y-102912218D01*
X169987782Y-102772861D01*
X169823914Y-102663368D01*
X169823911Y-102663366D01*
X169823908Y-102663365D01*
X169641835Y-102587949D01*
X169641830Y-102587947D01*
X169448545Y-102549500D01*
X169448541Y-102549500D01*
X142851459Y-102549500D01*
X142758092Y-102568071D01*
X142696733Y-102580277D01*
X142599578Y-102580276D01*
X142509819Y-102543097D01*
X142441120Y-102474398D01*
X142403940Y-102384638D01*
X142403941Y-102287483D01*
X142441120Y-102197724D01*
X142472081Y-102159996D01*
X144458648Y-100173430D01*
X144539430Y-100119454D01*
X144634718Y-100100500D01*
X147678842Y-100100500D01*
X147833497Y-100069737D01*
X147979179Y-100009394D01*
X148110289Y-99921789D01*
X148221789Y-99810289D01*
X148309394Y-99679179D01*
X148369737Y-99533497D01*
X148400500Y-99378842D01*
X148400500Y-99221158D01*
X148369737Y-99066503D01*
X148309394Y-98920821D01*
X148278048Y-98873909D01*
X148221791Y-98789714D01*
X148221789Y-98789711D01*
X148194415Y-98762337D01*
X148140442Y-98681559D01*
X148121488Y-98586271D01*
X148140442Y-98490983D01*
X148163451Y-98447936D01*
X148209394Y-98379179D01*
X148269737Y-98233497D01*
X148300500Y-98078842D01*
X148300500Y-97921158D01*
X148269737Y-97766503D01*
X148209394Y-97620821D01*
X148192748Y-97595909D01*
X148121791Y-97489714D01*
X148121789Y-97489711D01*
X148010289Y-97378211D01*
X148010285Y-97378208D01*
X147879180Y-97290606D01*
X147879173Y-97290603D01*
X147733497Y-97230263D01*
X147733492Y-97230261D01*
X147578846Y-97199500D01*
X147578842Y-97199500D01*
X143578842Y-97199500D01*
X143421157Y-97199500D01*
X143421152Y-97199500D01*
X143266505Y-97230261D01*
X143266502Y-97230262D01*
X143223833Y-97247937D01*
X143223832Y-97247937D01*
X143120828Y-97290602D01*
X143120820Y-97290606D01*
X142989712Y-97378210D01*
X142989709Y-97378211D01*
X142989710Y-97378212D01*
X137241352Y-103126570D01*
X137160570Y-103180546D01*
X137065282Y-103199500D01*
X117140124Y-103199500D01*
X117044836Y-103180546D01*
X116964054Y-103126570D01*
X116910078Y-103045788D01*
X116891124Y-102950500D01*
X116895908Y-102901925D01*
X116900500Y-102878842D01*
X116900500Y-99134718D01*
X116919454Y-99039430D01*
X116973430Y-98958648D01*
X117889955Y-98042123D01*
X120449500Y-98042123D01*
X120449500Y-101037864D01*
X120449500Y-101037869D01*
X120449501Y-101037872D01*
X120451044Y-101052229D01*
X120455908Y-101097480D01*
X120455909Y-101097483D01*
X120506204Y-101232331D01*
X120592454Y-101347546D01*
X120707669Y-101433796D01*
X120842517Y-101484091D01*
X120902127Y-101490500D01*
X121126081Y-101490499D01*
X121126082Y-101490500D01*
X121273918Y-101490500D01*
X121273918Y-101490499D01*
X122513774Y-101490499D01*
X122513794Y-101490500D01*
X122526082Y-101490500D01*
X122689179Y-101490500D01*
X122689195Y-101490499D01*
X122897866Y-101490499D01*
X122897872Y-101490499D01*
X122957483Y-101484091D01*
X123092331Y-101433796D01*
X123207546Y-101347546D01*
X123293796Y-101232331D01*
X123344091Y-101097483D01*
X123350500Y-101037873D01*
X123350500Y-99608127D01*
X123350500Y-99466082D01*
X123350500Y-99446017D01*
X123350499Y-99446003D01*
X123350499Y-98413922D01*
X123350500Y-98413918D01*
X123350500Y-98266082D01*
X123350499Y-98266077D01*
X123350499Y-98042128D01*
X123344091Y-97982517D01*
X123293796Y-97847669D01*
X123207546Y-97732454D01*
X123092331Y-97646204D01*
X123012117Y-97616286D01*
X122957481Y-97595908D01*
X122897876Y-97589500D01*
X122897873Y-97589500D01*
X122673918Y-97589500D01*
X122526082Y-97589500D01*
X122526081Y-97589500D01*
X121273922Y-97589500D01*
X121273918Y-97589500D01*
X121126082Y-97589500D01*
X121126077Y-97589500D01*
X120902135Y-97589500D01*
X120902129Y-97589500D01*
X120902128Y-97589501D01*
X120894949Y-97590272D01*
X120842519Y-97595908D01*
X120842515Y-97595909D01*
X120707670Y-97646203D01*
X120592455Y-97732453D01*
X120592453Y-97732455D01*
X120506204Y-97847669D01*
X120455908Y-97982518D01*
X120449500Y-98042123D01*
X117889955Y-98042123D01*
X119858648Y-96073430D01*
X119939430Y-96019454D01*
X120034718Y-96000500D01*
X126078842Y-96000500D01*
X126233497Y-95969737D01*
X126379179Y-95909394D01*
X126510289Y-95821789D01*
X126621789Y-95710289D01*
X126709394Y-95579179D01*
X126769737Y-95433497D01*
X126800500Y-95278842D01*
X126800500Y-95121158D01*
X126769737Y-94966503D01*
X126709394Y-94820821D01*
X126707005Y-94817246D01*
X126621791Y-94689714D01*
X126621789Y-94689711D01*
X126510289Y-94578211D01*
X126510285Y-94578208D01*
X126379180Y-94490606D01*
X126379173Y-94490603D01*
X126233497Y-94430263D01*
X126233492Y-94430261D01*
X126078846Y-94399500D01*
X126078842Y-94399500D01*
X124540124Y-94399500D01*
X124444836Y-94380546D01*
X124364054Y-94326570D01*
X124310078Y-94245788D01*
X124291124Y-94150500D01*
X124295908Y-94101925D01*
X124300500Y-94078842D01*
X124300500Y-93921158D01*
X124291957Y-93878211D01*
X124269738Y-93766507D01*
X124269737Y-93766505D01*
X124269737Y-93766503D01*
X124209394Y-93620821D01*
X124178062Y-93573930D01*
X124121791Y-93489714D01*
X124121789Y-93489711D01*
X124010289Y-93378211D01*
X123975869Y-93355212D01*
X123879180Y-93290606D01*
X123879173Y-93290603D01*
X123733497Y-93230263D01*
X123733492Y-93230261D01*
X123578846Y-93199500D01*
X123578842Y-93199500D01*
X118078843Y-93199500D01*
X117921158Y-93199500D01*
X117766503Y-93230262D01*
X117766502Y-93230262D01*
X117766499Y-93230263D01*
X117620825Y-93290603D01*
X117620820Y-93290606D01*
X117489714Y-93378208D01*
X100489711Y-110378211D01*
X100489710Y-110378210D01*
X100378212Y-110489709D01*
X100378210Y-110489712D01*
X100290606Y-110620819D01*
X100290603Y-110620826D01*
X100230263Y-110766502D01*
X100230261Y-110766507D01*
X100199500Y-110921153D01*
X100199500Y-116065282D01*
X100180546Y-116160570D01*
X100126570Y-116241352D01*
X99710160Y-116657762D01*
X99710159Y-116657761D01*
X99668593Y-116699328D01*
X99668591Y-116699331D01*
X99580987Y-116830438D01*
X99580984Y-116830445D01*
X99520644Y-116976121D01*
X99520642Y-116976126D01*
X99489881Y-117130772D01*
X99489881Y-117288465D01*
X99520642Y-117443109D01*
X99520643Y-117443111D01*
X99520644Y-117443116D01*
X99534091Y-117475579D01*
X99553043Y-117570868D01*
X99534087Y-117666156D01*
X99480110Y-117746936D01*
X99399328Y-117800912D01*
X99304039Y-117819864D01*
X99220381Y-117803224D01*
X99220057Y-117804294D01*
X99209197Y-117800999D01*
X99208761Y-117800913D01*
X99208352Y-117800743D01*
X99053790Y-117770000D01*
X98825001Y-117770000D01*
X98825000Y-117770001D01*
X98825000Y-118169999D01*
X98825001Y-118170000D01*
X99669880Y-118170000D01*
X99717076Y-118081702D01*
X99778710Y-118006600D01*
X99864393Y-117960801D01*
X99961080Y-117951278D01*
X100031960Y-117969032D01*
X100056884Y-117979356D01*
X100056887Y-117979356D01*
X100056888Y-117979357D01*
X100193848Y-118006600D01*
X100211539Y-118010119D01*
X100369223Y-118010119D01*
X100523878Y-117979356D01*
X100669560Y-117919013D01*
X100800670Y-117831408D01*
X100836811Y-117795267D01*
X100856192Y-117775887D01*
X101416312Y-117215766D01*
X101621788Y-117010290D01*
X101626769Y-117002835D01*
X101641304Y-116981084D01*
X101705327Y-116885266D01*
X115249500Y-116885266D01*
X115249500Y-117114734D01*
X115251612Y-117130777D01*
X115279451Y-117342234D01*
X115338841Y-117563885D01*
X115426653Y-117775882D01*
X115426655Y-117775887D01*
X115526369Y-117948597D01*
X115541389Y-117974612D01*
X115545029Y-117979356D01*
X115623562Y-118081702D01*
X115681081Y-118156661D01*
X115843339Y-118318919D01*
X116025388Y-118458611D01*
X116025397Y-118458616D01*
X116224106Y-118573341D01*
X116224109Y-118573342D01*
X116224112Y-118573344D01*
X116436113Y-118661158D01*
X116657762Y-118720548D01*
X116885266Y-118750500D01*
X117614734Y-118750500D01*
X117842238Y-118720548D01*
X118063887Y-118661158D01*
X118275888Y-118573344D01*
X118474612Y-118458611D01*
X118656661Y-118318919D01*
X118818919Y-118156661D01*
X118958611Y-117974612D01*
X119058896Y-117800913D01*
X119073345Y-117775887D01*
X119073346Y-117775882D01*
X119075782Y-117770001D01*
X119161158Y-117563887D01*
X119220548Y-117342238D01*
X119250500Y-117114734D01*
X119250500Y-116885266D01*
X127749500Y-116885266D01*
X127749500Y-117114734D01*
X127751612Y-117130777D01*
X127779451Y-117342234D01*
X127838841Y-117563885D01*
X127926653Y-117775882D01*
X127926655Y-117775887D01*
X128026369Y-117948597D01*
X128041389Y-117974612D01*
X128045029Y-117979356D01*
X128123562Y-118081702D01*
X128181081Y-118156661D01*
X128343339Y-118318919D01*
X128525388Y-118458611D01*
X128525397Y-118458616D01*
X128724106Y-118573341D01*
X128724109Y-118573342D01*
X128724112Y-118573344D01*
X128936113Y-118661158D01*
X129157762Y-118720548D01*
X129385266Y-118750500D01*
X130114734Y-118750500D01*
X130342238Y-118720548D01*
X130563887Y-118661158D01*
X130775888Y-118573344D01*
X130974612Y-118458611D01*
X131156661Y-118318919D01*
X131318919Y-118156661D01*
X131458611Y-117974612D01*
X131558896Y-117800913D01*
X131573345Y-117775887D01*
X131573346Y-117775882D01*
X131575782Y-117770001D01*
X131661158Y-117563887D01*
X131720548Y-117342238D01*
X131750500Y-117114734D01*
X131750500Y-116885266D01*
X131720548Y-116657762D01*
X131661158Y-116436113D01*
X131573344Y-116224112D01*
X131541191Y-116168422D01*
X131458616Y-116025397D01*
X131458611Y-116025388D01*
X131318919Y-115843339D01*
X131156661Y-115681081D01*
X131156656Y-115681077D01*
X131156655Y-115681076D01*
X130974621Y-115541396D01*
X130974622Y-115541396D01*
X130974612Y-115541389D01*
X130942382Y-115522781D01*
X130775893Y-115426658D01*
X130775882Y-115426653D01*
X130563885Y-115338841D01*
X130435911Y-115304551D01*
X130342238Y-115279452D01*
X130342235Y-115279451D01*
X130342236Y-115279451D01*
X130114734Y-115249500D01*
X129385266Y-115249500D01*
X129157765Y-115279451D01*
X128936114Y-115338841D01*
X128724117Y-115426653D01*
X128724106Y-115426658D01*
X128525397Y-115541383D01*
X128525378Y-115541396D01*
X128343344Y-115681076D01*
X128181076Y-115843344D01*
X128041396Y-116025378D01*
X128041383Y-116025397D01*
X127926658Y-116224106D01*
X127926653Y-116224117D01*
X127838841Y-116436114D01*
X127779451Y-116657765D01*
X127763118Y-116781826D01*
X127749500Y-116885266D01*
X119250500Y-116885266D01*
X119220548Y-116657762D01*
X119161158Y-116436113D01*
X119073344Y-116224112D01*
X119041191Y-116168422D01*
X118958616Y-116025397D01*
X118958611Y-116025388D01*
X118818919Y-115843339D01*
X118656661Y-115681081D01*
X118656656Y-115681077D01*
X118656655Y-115681076D01*
X118474621Y-115541396D01*
X118474622Y-115541396D01*
X118474612Y-115541389D01*
X118442382Y-115522781D01*
X118275893Y-115426658D01*
X118275882Y-115426653D01*
X118063885Y-115338841D01*
X117935911Y-115304551D01*
X117842238Y-115279452D01*
X117842235Y-115279451D01*
X117842236Y-115279451D01*
X117614734Y-115249500D01*
X116885266Y-115249500D01*
X116657765Y-115279451D01*
X116436114Y-115338841D01*
X116224117Y-115426653D01*
X116224106Y-115426658D01*
X116025397Y-115541383D01*
X116025378Y-115541396D01*
X115843344Y-115681076D01*
X115681076Y-115843344D01*
X115541396Y-116025378D01*
X115541383Y-116025397D01*
X115426658Y-116224106D01*
X115426653Y-116224117D01*
X115338841Y-116436114D01*
X115279451Y-116657765D01*
X115263118Y-116781826D01*
X115249500Y-116885266D01*
X101705327Y-116885266D01*
X101709390Y-116879185D01*
X101709390Y-116879184D01*
X101709394Y-116879179D01*
X101740378Y-116804374D01*
X101749719Y-116781826D01*
X101756342Y-116765833D01*
X101769737Y-116733497D01*
X101777450Y-116694724D01*
X101800500Y-116578843D01*
X101800500Y-116421158D01*
X101800500Y-114949367D01*
X101819454Y-114854079D01*
X101873430Y-114773297D01*
X101954212Y-114719321D01*
X102049500Y-114700367D01*
X102144786Y-114719320D01*
X102266503Y-114769737D01*
X102266506Y-114769737D01*
X102266507Y-114769738D01*
X102417148Y-114799702D01*
X102421158Y-114800500D01*
X102550633Y-114800500D01*
X102645921Y-114819454D01*
X102726703Y-114873430D01*
X102780679Y-114954212D01*
X102799633Y-115049500D01*
X102780679Y-115144788D01*
X102730262Y-115266506D01*
X102730261Y-115266507D01*
X102699500Y-115421153D01*
X102699500Y-115578846D01*
X102730261Y-115733492D01*
X102730263Y-115733497D01*
X102790603Y-115879173D01*
X102790606Y-115879180D01*
X102878208Y-116010285D01*
X102878211Y-116010289D01*
X102989711Y-116121789D01*
X102989714Y-116121791D01*
X103120819Y-116209393D01*
X103120820Y-116209393D01*
X103120821Y-116209394D01*
X103266503Y-116269737D01*
X103266505Y-116269737D01*
X103266507Y-116269738D01*
X103354581Y-116287257D01*
X103421158Y-116300500D01*
X108078842Y-116300500D01*
X108233497Y-116269737D01*
X108379179Y-116209394D01*
X108510289Y-116121789D01*
X113032078Y-111600000D01*
X115500201Y-111600000D01*
X116801473Y-111600000D01*
X116769881Y-111631592D01*
X116690889Y-111768409D01*
X116650000Y-111921009D01*
X116650000Y-112078991D01*
X116690889Y-112231591D01*
X116769881Y-112368408D01*
X116801473Y-112400000D01*
X115500201Y-112400000D01*
X115563557Y-112594990D01*
X115674325Y-112812383D01*
X115817723Y-113009753D01*
X115990246Y-113182276D01*
X116187616Y-113325674D01*
X116405010Y-113436442D01*
X116637038Y-113511833D01*
X116850000Y-113545562D01*
X116850000Y-112448527D01*
X116881592Y-112480119D01*
X117018409Y-112559111D01*
X117171009Y-112600000D01*
X117328991Y-112600000D01*
X117481591Y-112559111D01*
X117618408Y-112480119D01*
X117650000Y-112448527D01*
X117650000Y-113545562D01*
X117862961Y-113511833D01*
X118094989Y-113436442D01*
X118312383Y-113325674D01*
X118509753Y-113182276D01*
X118682276Y-113009753D01*
X118825674Y-112812383D01*
X118936442Y-112594990D01*
X118999799Y-112400000D01*
X117698527Y-112400000D01*
X117730119Y-112368408D01*
X117809111Y-112231591D01*
X117850000Y-112078991D01*
X117850000Y-111921009D01*
X117809111Y-111768409D01*
X117730119Y-111631592D01*
X117698527Y-111600000D01*
X118999799Y-111600000D01*
X128000201Y-111600000D01*
X129301473Y-111600000D01*
X129269881Y-111631592D01*
X129190889Y-111768409D01*
X129150000Y-111921009D01*
X129150000Y-112078991D01*
X129190889Y-112231591D01*
X129269881Y-112368408D01*
X129301473Y-112400000D01*
X128000201Y-112400000D01*
X128063557Y-112594990D01*
X128174325Y-112812383D01*
X128317723Y-113009753D01*
X128490246Y-113182276D01*
X128687616Y-113325674D01*
X128905010Y-113436442D01*
X129137038Y-113511833D01*
X129350000Y-113545562D01*
X129350000Y-112448527D01*
X129381592Y-112480119D01*
X129518409Y-112559111D01*
X129671009Y-112600000D01*
X129828991Y-112600000D01*
X129981591Y-112559111D01*
X130118408Y-112480119D01*
X130150000Y-112448527D01*
X130150000Y-113545561D01*
X130362961Y-113511833D01*
X130594989Y-113436442D01*
X130812383Y-113325674D01*
X131009753Y-113182276D01*
X131182276Y-113009753D01*
X131325674Y-112812383D01*
X131436442Y-112594990D01*
X131499799Y-112400000D01*
X130198527Y-112400000D01*
X130230119Y-112368408D01*
X130309111Y-112231591D01*
X130350000Y-112078991D01*
X130350000Y-111921009D01*
X130309111Y-111768409D01*
X130230119Y-111631592D01*
X130198527Y-111600000D01*
X131499799Y-111600000D01*
X131436442Y-111405009D01*
X131325674Y-111187616D01*
X131182276Y-110990246D01*
X131009753Y-110817723D01*
X130812383Y-110674325D01*
X130594989Y-110563557D01*
X130362962Y-110488167D01*
X130362949Y-110488163D01*
X130150000Y-110454435D01*
X130150000Y-111551473D01*
X130118408Y-111519881D01*
X129981591Y-111440889D01*
X129828991Y-111400000D01*
X129671009Y-111400000D01*
X129518409Y-111440889D01*
X129381592Y-111519881D01*
X129350000Y-111551473D01*
X129350000Y-110454435D01*
X129137050Y-110488163D01*
X129137037Y-110488167D01*
X128905010Y-110563557D01*
X128687616Y-110674325D01*
X128490246Y-110817723D01*
X128317723Y-110990246D01*
X128174325Y-111187616D01*
X128063557Y-111405009D01*
X128000201Y-111600000D01*
X118999799Y-111600000D01*
X118936442Y-111405009D01*
X118825674Y-111187616D01*
X118682276Y-110990246D01*
X118509753Y-110817723D01*
X118312383Y-110674325D01*
X118094989Y-110563557D01*
X117862962Y-110488167D01*
X117862949Y-110488163D01*
X117650000Y-110454435D01*
X117650000Y-111551473D01*
X117618408Y-111519881D01*
X117481591Y-111440889D01*
X117328991Y-111400000D01*
X117171009Y-111400000D01*
X117018409Y-111440889D01*
X116881592Y-111519881D01*
X116850000Y-111551473D01*
X116850000Y-110454435D01*
X116637050Y-110488163D01*
X116637037Y-110488167D01*
X116405010Y-110563557D01*
X116187616Y-110674325D01*
X115990246Y-110817723D01*
X115817723Y-110990246D01*
X115674325Y-111187616D01*
X115563557Y-111405009D01*
X115500201Y-111600000D01*
X113032078Y-111600000D01*
X117758648Y-106873430D01*
X117839430Y-106819454D01*
X117934718Y-106800500D01*
X137578842Y-106800500D01*
X137733497Y-106769737D01*
X137879179Y-106709394D01*
X138010289Y-106621789D01*
X141559997Y-103072080D01*
X141640773Y-103018109D01*
X141736061Y-102999155D01*
X141831349Y-103018109D01*
X141912131Y-103072085D01*
X141966107Y-103152867D01*
X141985061Y-103248155D01*
X141980277Y-103296732D01*
X141949500Y-103451460D01*
X141949500Y-103648545D01*
X141987947Y-103841830D01*
X141987949Y-103841835D01*
X142063365Y-104023908D01*
X142063366Y-104023911D01*
X142063368Y-104023914D01*
X142172861Y-104187782D01*
X142312218Y-104327139D01*
X142476086Y-104436632D01*
X142658165Y-104512051D01*
X142658167Y-104512051D01*
X142658169Y-104512052D01*
X142846453Y-104549504D01*
X142851459Y-104550500D01*
X151867862Y-104550500D01*
X151963150Y-104569454D01*
X152043932Y-104623430D01*
X152097908Y-104704212D01*
X152116862Y-104799500D01*
X152112078Y-104848073D01*
X152099500Y-104911309D01*
X152099500Y-104911311D01*
X152099500Y-110806330D01*
X152080546Y-110901618D01*
X152026570Y-110982400D01*
X151945788Y-111036376D01*
X151850500Y-111055330D01*
X151755212Y-111036376D01*
X151674430Y-110982400D01*
X151509753Y-110817723D01*
X151312383Y-110674325D01*
X151094989Y-110563557D01*
X150862962Y-110488167D01*
X150862949Y-110488163D01*
X150650000Y-110454435D01*
X150650000Y-111551473D01*
X150618408Y-111519881D01*
X150481591Y-111440889D01*
X150328991Y-111400000D01*
X150171009Y-111400000D01*
X150018409Y-111440889D01*
X149881592Y-111519881D01*
X149850000Y-111551473D01*
X149850000Y-110454435D01*
X149637050Y-110488163D01*
X149637037Y-110488167D01*
X149405010Y-110563557D01*
X149187616Y-110674325D01*
X148990246Y-110817723D01*
X148817723Y-110990246D01*
X148674325Y-111187616D01*
X148563557Y-111405009D01*
X148500201Y-111600000D01*
X149801473Y-111600000D01*
X149769881Y-111631592D01*
X149690889Y-111768409D01*
X149650000Y-111921009D01*
X149650000Y-112078991D01*
X149690889Y-112231591D01*
X149769881Y-112368408D01*
X149801473Y-112400000D01*
X148500201Y-112400000D01*
X148563557Y-112594990D01*
X148674325Y-112812383D01*
X148817723Y-113009753D01*
X148990246Y-113182276D01*
X149187616Y-113325674D01*
X149405010Y-113436442D01*
X149637038Y-113511833D01*
X149850000Y-113545562D01*
X149850000Y-112448527D01*
X149881592Y-112480119D01*
X150018409Y-112559111D01*
X150171009Y-112600000D01*
X150328991Y-112600000D01*
X150481591Y-112559111D01*
X150618408Y-112480119D01*
X150650000Y-112448527D01*
X150650000Y-113545561D01*
X150862961Y-113511833D01*
X151094989Y-113436442D01*
X151312383Y-113325674D01*
X151509753Y-113182276D01*
X151674430Y-113017600D01*
X151755212Y-112963624D01*
X151850500Y-112944670D01*
X151945788Y-112963624D01*
X152026570Y-113017600D01*
X152080546Y-113098382D01*
X152099500Y-113193670D01*
X152099500Y-115522781D01*
X152080546Y-115618069D01*
X152026570Y-115698851D01*
X151945788Y-115752827D01*
X151850500Y-115771781D01*
X151755212Y-115752827D01*
X151674433Y-115698853D01*
X151656661Y-115681081D01*
X151656656Y-115681077D01*
X151656655Y-115681076D01*
X151474621Y-115541396D01*
X151474622Y-115541396D01*
X151474612Y-115541389D01*
X151442382Y-115522781D01*
X151275893Y-115426658D01*
X151275882Y-115426653D01*
X151063885Y-115338841D01*
X150935911Y-115304551D01*
X150842238Y-115279452D01*
X150842235Y-115279451D01*
X150842236Y-115279451D01*
X150614734Y-115249500D01*
X149885266Y-115249500D01*
X149657765Y-115279451D01*
X149436114Y-115338841D01*
X149224117Y-115426653D01*
X149224106Y-115426658D01*
X149025397Y-115541383D01*
X149025378Y-115541396D01*
X148843344Y-115681076D01*
X148681076Y-115843344D01*
X148541396Y-116025378D01*
X148541383Y-116025397D01*
X148426658Y-116224106D01*
X148426653Y-116224117D01*
X148338841Y-116436114D01*
X148279451Y-116657765D01*
X148263118Y-116781826D01*
X148249500Y-116885266D01*
X148249500Y-117114734D01*
X148251612Y-117130777D01*
X148279451Y-117342234D01*
X148338841Y-117563885D01*
X148426653Y-117775882D01*
X148426655Y-117775887D01*
X148526369Y-117948597D01*
X148541389Y-117974612D01*
X148545029Y-117979356D01*
X148623562Y-118081702D01*
X148681081Y-118156661D01*
X148843339Y-118318919D01*
X149025388Y-118458611D01*
X149025397Y-118458616D01*
X149224106Y-118573341D01*
X149224109Y-118573342D01*
X149224112Y-118573344D01*
X149436113Y-118661158D01*
X149657762Y-118720548D01*
X149885266Y-118750500D01*
X150622886Y-118750500D01*
X150622886Y-118752769D01*
X150704973Y-118763554D01*
X150789125Y-118812109D01*
X150848290Y-118889171D01*
X150873460Y-118983009D01*
X150860805Y-119079336D01*
X150812250Y-119163488D01*
X150801068Y-119175430D01*
X150449930Y-119526569D01*
X150369149Y-119580546D01*
X150273860Y-119599500D01*
X120088692Y-119599500D01*
X119911308Y-119599500D01*
X119737334Y-119634105D01*
X119737333Y-119634105D01*
X119737330Y-119634106D01*
X119655394Y-119668044D01*
X119655395Y-119668045D01*
X119573450Y-119701988D01*
X119573449Y-119701988D01*
X119485040Y-119761061D01*
X119485041Y-119761062D01*
X119425964Y-119800536D01*
X106199930Y-133026570D01*
X106119148Y-133080546D01*
X106023860Y-133099500D01*
X105283468Y-133099500D01*
X105188180Y-133080546D01*
X105107398Y-133026570D01*
X105053422Y-132945788D01*
X105034468Y-132850500D01*
X105053422Y-132755212D01*
X105107398Y-132674430D01*
X105188180Y-132620454D01*
X105188181Y-132620454D01*
X105327494Y-132562749D01*
X105327498Y-132562746D01*
X105327507Y-132562743D01*
X105582994Y-132415238D01*
X105817042Y-132235646D01*
X106025646Y-132027042D01*
X106205238Y-131792994D01*
X106352743Y-131537507D01*
X106465639Y-131264952D01*
X106541993Y-130979993D01*
X106580500Y-130687506D01*
X106580500Y-130392494D01*
X106541993Y-130100007D01*
X106465639Y-129815048D01*
X106352743Y-129542493D01*
X106205238Y-129287006D01*
X106025646Y-129052958D01*
X105817042Y-128844354D01*
X105817037Y-128844350D01*
X105817036Y-128844349D01*
X105582994Y-128664762D01*
X105582989Y-128664759D01*
X105495719Y-128614374D01*
X105327507Y-128517257D01*
X105327505Y-128517256D01*
X105327503Y-128517255D01*
X105327499Y-128517253D01*
X105054950Y-128404360D01*
X104931555Y-128371297D01*
X104769993Y-128328007D01*
X104769988Y-128328006D01*
X104769989Y-128328006D01*
X104477507Y-128289500D01*
X104477506Y-128289500D01*
X104182494Y-128289500D01*
X104182493Y-128289500D01*
X103890011Y-128328006D01*
X103605049Y-128404360D01*
X103332500Y-128517253D01*
X103332496Y-128517255D01*
X103077010Y-128664759D01*
X103077005Y-128664762D01*
X102842963Y-128844349D01*
X102634349Y-129052963D01*
X102454762Y-129287005D01*
X102454759Y-129287010D01*
X102307255Y-129542496D01*
X102307253Y-129542500D01*
X102194360Y-129815049D01*
X102118006Y-130100011D01*
X102079500Y-130392493D01*
X102079500Y-130687506D01*
X102107488Y-130900099D01*
X102118007Y-130979993D01*
X102123159Y-130999219D01*
X102194360Y-131264950D01*
X102307253Y-131537499D01*
X102307255Y-131537503D01*
X102307257Y-131537507D01*
X102348783Y-131609432D01*
X102454759Y-131792989D01*
X102454762Y-131792994D01*
X102575183Y-131949930D01*
X102634354Y-132027042D01*
X102842958Y-132235646D01*
X103077006Y-132415238D01*
X103332493Y-132562743D01*
X103332497Y-132562744D01*
X103332505Y-132562749D01*
X103471819Y-132620454D01*
X103552601Y-132674430D01*
X103606578Y-132755211D01*
X103625532Y-132850499D01*
X103606578Y-132945787D01*
X103552602Y-133026569D01*
X103471821Y-133080546D01*
X103376533Y-133099500D01*
X102872673Y-133099500D01*
X102777385Y-133080546D01*
X102726315Y-133051946D01*
X102691388Y-133026570D01*
X102628845Y-132981130D01*
X102404379Y-132866759D01*
X102404376Y-132866758D01*
X102404374Y-132866757D01*
X102164782Y-132788909D01*
X101915971Y-132749500D01*
X101915962Y-132749500D01*
X101664038Y-132749500D01*
X101664028Y-132749500D01*
X101415217Y-132788909D01*
X101175625Y-132866757D01*
X101175621Y-132866758D01*
X101175621Y-132866759D01*
X100951155Y-132981130D01*
X100951153Y-132981131D01*
X100951148Y-132981134D01*
X100747347Y-133129204D01*
X100569204Y-133307347D01*
X100421134Y-133511148D01*
X100421131Y-133511153D01*
X100421130Y-133511155D01*
X100361176Y-133628822D01*
X100306757Y-133735625D01*
X100228909Y-133975217D01*
X100189500Y-134224028D01*
X100189500Y-134475971D01*
X100228909Y-134724782D01*
X100305387Y-134960159D01*
X100306759Y-134964379D01*
X100421130Y-135188845D01*
X100421133Y-135188849D01*
X100421134Y-135188851D01*
X100547155Y-135362304D01*
X100569207Y-135392656D01*
X100747344Y-135570793D01*
X100951155Y-135718870D01*
X101175621Y-135833241D01*
X101415215Y-135911090D01*
X101502729Y-135924951D01*
X101664028Y-135950499D01*
X101664035Y-135950499D01*
X101664038Y-135950500D01*
X101664041Y-135950500D01*
X101915959Y-135950500D01*
X101915962Y-135950500D01*
X101915965Y-135950499D01*
X101915971Y-135950499D01*
X102033513Y-135931881D01*
X102164785Y-135911090D01*
X102404379Y-135833241D01*
X102628845Y-135718870D01*
X102832656Y-135570793D01*
X102832659Y-135570789D01*
X102840525Y-135565075D01*
X102928755Y-135524400D01*
X103025836Y-135520585D01*
X103116986Y-135554212D01*
X103188329Y-135620161D01*
X103229004Y-135708391D01*
X103232818Y-135727567D01*
X103256597Y-135877698D01*
X103310124Y-136042437D01*
X103310126Y-136042443D01*
X103388770Y-136196792D01*
X103490581Y-136336922D01*
X103490583Y-136336924D01*
X103490586Y-136336928D01*
X103613072Y-136459414D01*
X103613075Y-136459416D01*
X103613077Y-136459418D01*
X103753207Y-136561229D01*
X103753209Y-136561230D01*
X103753212Y-136561232D01*
X103907555Y-136639873D01*
X104072299Y-136693402D01*
X104243389Y-136720500D01*
X104243393Y-136720500D01*
X104416607Y-136720500D01*
X104416611Y-136720500D01*
X104587701Y-136693402D01*
X104752445Y-136639873D01*
X104906788Y-136561232D01*
X105046928Y-136459414D01*
X105169414Y-136336928D01*
X105271232Y-136196788D01*
X105349873Y-136042445D01*
X105403402Y-135877701D01*
X105430500Y-135706611D01*
X105430500Y-135533389D01*
X105408210Y-135392656D01*
X105403403Y-135362304D01*
X105403402Y-135362302D01*
X105403402Y-135362299D01*
X105359259Y-135226444D01*
X105347841Y-135129964D01*
X105374212Y-135036457D01*
X105434360Y-134960159D01*
X105519127Y-134912687D01*
X105596073Y-134900500D01*
X106588689Y-134900500D01*
X106588692Y-134900500D01*
X106762666Y-134865895D01*
X106849262Y-134830025D01*
X106926547Y-134798013D01*
X107036140Y-134724785D01*
X107074036Y-134699464D01*
X113883692Y-127889808D01*
X117100000Y-127889808D01*
X117100000Y-128110191D01*
X117134472Y-128327831D01*
X117202566Y-128537406D01*
X117202574Y-128537423D01*
X117268163Y-128666149D01*
X117768323Y-128165988D01*
X117778822Y-128218767D01*
X117835359Y-128355258D01*
X117917437Y-128478097D01*
X118021903Y-128582563D01*
X118144742Y-128664641D01*
X118281233Y-128721178D01*
X118334008Y-128731675D01*
X117833849Y-129231834D01*
X117833849Y-129231835D01*
X117962587Y-129297431D01*
X117962591Y-129297432D01*
X118172168Y-129365527D01*
X118389808Y-129399999D01*
X118389821Y-129400000D01*
X118610179Y-129400000D01*
X118610191Y-129399999D01*
X118827831Y-129365527D01*
X119037407Y-129297433D01*
X119037418Y-129297428D01*
X119166149Y-129231835D01*
X118665989Y-128731675D01*
X118718767Y-128721178D01*
X118855258Y-128664641D01*
X118978097Y-128582563D01*
X119082563Y-128478097D01*
X119164641Y-128355258D01*
X119221178Y-128218767D01*
X119231675Y-128165989D01*
X119731835Y-128666149D01*
X119797428Y-128537418D01*
X119797433Y-128537407D01*
X119865527Y-128327831D01*
X119899999Y-128110191D01*
X119900000Y-128110179D01*
X119900000Y-127889820D01*
X119899999Y-127889808D01*
X119865527Y-127672168D01*
X119797432Y-127462591D01*
X119797431Y-127462587D01*
X119731834Y-127333849D01*
X119231675Y-127834008D01*
X119221178Y-127781233D01*
X119164641Y-127644742D01*
X119082563Y-127521903D01*
X118978097Y-127417437D01*
X118855258Y-127335359D01*
X118718767Y-127278822D01*
X118665988Y-127268323D01*
X119166149Y-126768163D01*
X119037423Y-126702574D01*
X119037406Y-126702566D01*
X118827831Y-126634472D01*
X118610191Y-126600000D01*
X118389808Y-126600000D01*
X118172168Y-126634472D01*
X117962592Y-126702567D01*
X117962587Y-126702569D01*
X117833848Y-126768164D01*
X118334009Y-127268324D01*
X118281233Y-127278822D01*
X118144742Y-127335359D01*
X118021903Y-127417437D01*
X117917437Y-127521903D01*
X117835359Y-127644742D01*
X117778822Y-127781233D01*
X117768324Y-127834008D01*
X117268164Y-127333848D01*
X117202569Y-127462587D01*
X117202567Y-127462592D01*
X117134472Y-127672168D01*
X117100000Y-127889808D01*
X113883692Y-127889808D01*
X116400107Y-125373393D01*
X122479500Y-125373393D01*
X122479500Y-125546606D01*
X122479501Y-125546621D01*
X122506597Y-125717697D01*
X122560124Y-125882437D01*
X122560126Y-125882443D01*
X122638770Y-126036792D01*
X122740581Y-126176922D01*
X122740583Y-126176924D01*
X122740586Y-126176928D01*
X122863072Y-126299414D01*
X122863075Y-126299416D01*
X122863077Y-126299418D01*
X123003207Y-126401229D01*
X123003209Y-126401230D01*
X123003212Y-126401232D01*
X123157555Y-126479873D01*
X123322299Y-126533402D01*
X123493389Y-126560500D01*
X123493393Y-126560500D01*
X123666607Y-126560500D01*
X123666611Y-126560500D01*
X123837701Y-126533402D01*
X124002445Y-126479873D01*
X124156788Y-126401232D01*
X124296928Y-126299414D01*
X124419414Y-126176928D01*
X124521232Y-126036788D01*
X124599873Y-125882445D01*
X124653402Y-125717701D01*
X124680500Y-125546611D01*
X124680500Y-125373389D01*
X124653402Y-125202299D01*
X124599873Y-125037555D01*
X124521232Y-124883212D01*
X124521230Y-124883209D01*
X124521229Y-124883207D01*
X124419418Y-124743077D01*
X124419416Y-124743075D01*
X124419414Y-124743072D01*
X124296928Y-124620586D01*
X124296924Y-124620583D01*
X124296922Y-124620581D01*
X124156792Y-124518770D01*
X124002443Y-124440126D01*
X124002437Y-124440124D01*
X123908195Y-124409503D01*
X123837701Y-124386598D01*
X123837699Y-124386597D01*
X123837697Y-124386597D01*
X123666621Y-124359501D01*
X123666614Y-124359500D01*
X123666611Y-124359500D01*
X123493389Y-124359500D01*
X123493386Y-124359500D01*
X123493378Y-124359501D01*
X123322302Y-124386597D01*
X123157562Y-124440124D01*
X123157556Y-124440126D01*
X123003207Y-124518770D01*
X122863077Y-124620581D01*
X122740581Y-124743077D01*
X122638770Y-124883207D01*
X122560127Y-125037555D01*
X122506597Y-125202302D01*
X122479501Y-125373378D01*
X122479500Y-125373393D01*
X116400107Y-125373393D01*
X120300070Y-121473430D01*
X120380852Y-121419454D01*
X120476140Y-121400500D01*
X131224862Y-121400500D01*
X131320150Y-121419454D01*
X131400932Y-121473430D01*
X131454908Y-121554212D01*
X131473862Y-121649500D01*
X131454908Y-121744788D01*
X131400934Y-121825566D01*
X128867000Y-124359500D01*
X128550536Y-124675964D01*
X128511062Y-124735041D01*
X128451988Y-124823449D01*
X128451988Y-124823450D01*
X128418045Y-124905393D01*
X128418046Y-124905394D01*
X128384104Y-124987335D01*
X128374116Y-125037553D01*
X128374116Y-125037555D01*
X128349500Y-125161310D01*
X128349500Y-131773860D01*
X128330546Y-131869148D01*
X128276570Y-131949930D01*
X127199930Y-133026570D01*
X127119148Y-133080546D01*
X127023860Y-133099500D01*
X124533468Y-133099500D01*
X124438180Y-133080546D01*
X124357398Y-133026570D01*
X124303422Y-132945788D01*
X124284468Y-132850500D01*
X124303422Y-132755212D01*
X124357398Y-132674430D01*
X124438180Y-132620454D01*
X124438181Y-132620454D01*
X124577494Y-132562749D01*
X124577498Y-132562746D01*
X124577507Y-132562743D01*
X124832994Y-132415238D01*
X125067042Y-132235646D01*
X125275646Y-132027042D01*
X125455238Y-131792994D01*
X125602743Y-131537507D01*
X125715639Y-131264952D01*
X125791993Y-130979993D01*
X125830500Y-130687506D01*
X125830500Y-130392494D01*
X125791993Y-130100007D01*
X125715639Y-129815048D01*
X125602743Y-129542493D01*
X125455238Y-129287006D01*
X125275646Y-129052958D01*
X125067042Y-128844354D01*
X125067037Y-128844350D01*
X125067036Y-128844349D01*
X124832994Y-128664762D01*
X124832989Y-128664759D01*
X124745719Y-128614374D01*
X124577507Y-128517257D01*
X124577505Y-128517256D01*
X124577503Y-128517255D01*
X124577499Y-128517253D01*
X124304950Y-128404360D01*
X124181555Y-128371297D01*
X124019993Y-128328007D01*
X124019988Y-128328006D01*
X124019989Y-128328006D01*
X123727507Y-128289500D01*
X123727506Y-128289500D01*
X123432494Y-128289500D01*
X123432493Y-128289500D01*
X123140011Y-128328006D01*
X122855049Y-128404360D01*
X122582500Y-128517253D01*
X122582496Y-128517255D01*
X122327010Y-128664759D01*
X122327005Y-128664762D01*
X122092963Y-128844349D01*
X121884349Y-129052963D01*
X121704762Y-129287005D01*
X121704759Y-129287010D01*
X121557255Y-129542496D01*
X121557253Y-129542500D01*
X121444360Y-129815049D01*
X121368006Y-130100011D01*
X121329500Y-130392493D01*
X121329500Y-130687506D01*
X121357488Y-130900099D01*
X121368007Y-130979993D01*
X121373159Y-130999219D01*
X121444360Y-131264950D01*
X121557253Y-131537499D01*
X121557255Y-131537503D01*
X121557257Y-131537507D01*
X121598783Y-131609432D01*
X121704759Y-131792989D01*
X121704762Y-131792994D01*
X121825183Y-131949930D01*
X121884354Y-132027042D01*
X122092958Y-132235646D01*
X122327006Y-132415238D01*
X122582493Y-132562743D01*
X122582497Y-132562744D01*
X122582505Y-132562749D01*
X122721819Y-132620454D01*
X122802601Y-132674430D01*
X122856578Y-132755211D01*
X122875532Y-132850499D01*
X122856578Y-132945787D01*
X122802602Y-133026569D01*
X122721821Y-133080546D01*
X122626533Y-133099500D01*
X122122673Y-133099500D01*
X122027385Y-133080546D01*
X121976315Y-133051946D01*
X121941388Y-133026570D01*
X121878845Y-132981130D01*
X121654379Y-132866759D01*
X121654376Y-132866758D01*
X121654374Y-132866757D01*
X121414782Y-132788909D01*
X121165971Y-132749500D01*
X121165962Y-132749500D01*
X120914038Y-132749500D01*
X120914028Y-132749500D01*
X120665217Y-132788909D01*
X120425625Y-132866757D01*
X120425621Y-132866758D01*
X120425621Y-132866759D01*
X120201155Y-132981130D01*
X120201153Y-132981131D01*
X120201148Y-132981134D01*
X119997347Y-133129204D01*
X119819204Y-133307347D01*
X119671134Y-133511148D01*
X119671131Y-133511153D01*
X119671130Y-133511155D01*
X119611176Y-133628822D01*
X119556757Y-133735625D01*
X119478909Y-133975217D01*
X119439500Y-134224028D01*
X119439500Y-134475971D01*
X119478909Y-134724782D01*
X119555387Y-134960159D01*
X119556759Y-134964379D01*
X119671130Y-135188845D01*
X119671133Y-135188849D01*
X119671134Y-135188851D01*
X119797155Y-135362304D01*
X119819207Y-135392656D01*
X119997344Y-135570793D01*
X120201155Y-135718870D01*
X120425621Y-135833241D01*
X120665215Y-135911090D01*
X120752729Y-135924951D01*
X120914028Y-135950499D01*
X120914035Y-135950499D01*
X120914038Y-135950500D01*
X120914041Y-135950500D01*
X121165959Y-135950500D01*
X121165962Y-135950500D01*
X121165965Y-135950499D01*
X121165971Y-135950499D01*
X121283513Y-135931881D01*
X121414785Y-135911090D01*
X121654379Y-135833241D01*
X121878845Y-135718870D01*
X122082656Y-135570793D01*
X122082659Y-135570789D01*
X122090525Y-135565075D01*
X122178755Y-135524400D01*
X122275836Y-135520585D01*
X122366986Y-135554212D01*
X122438329Y-135620161D01*
X122479004Y-135708391D01*
X122482818Y-135727567D01*
X122506597Y-135877698D01*
X122560124Y-136042437D01*
X122560126Y-136042443D01*
X122638770Y-136196792D01*
X122740581Y-136336922D01*
X122740583Y-136336924D01*
X122740586Y-136336928D01*
X122863072Y-136459414D01*
X122863075Y-136459416D01*
X122863077Y-136459418D01*
X123003207Y-136561229D01*
X123003209Y-136561230D01*
X123003212Y-136561232D01*
X123157555Y-136639873D01*
X123322299Y-136693402D01*
X123493389Y-136720500D01*
X123493393Y-136720500D01*
X123666607Y-136720500D01*
X123666611Y-136720500D01*
X123837701Y-136693402D01*
X124002445Y-136639873D01*
X124156788Y-136561232D01*
X124296928Y-136459414D01*
X124419414Y-136336928D01*
X124521232Y-136196788D01*
X124599873Y-136042445D01*
X124653402Y-135877701D01*
X124680500Y-135706611D01*
X124680500Y-135533389D01*
X124658210Y-135392656D01*
X124653403Y-135362304D01*
X124653402Y-135362302D01*
X124653402Y-135362299D01*
X124609259Y-135226444D01*
X124597841Y-135129964D01*
X124624212Y-135036457D01*
X124684360Y-134960159D01*
X124769127Y-134912687D01*
X124846073Y-134900500D01*
X127588689Y-134900500D01*
X127588692Y-134900500D01*
X127762666Y-134865895D01*
X127849262Y-134830025D01*
X127926547Y-134798013D01*
X128036140Y-134724785D01*
X128074036Y-134699464D01*
X129949464Y-132824035D01*
X130048013Y-132676547D01*
X130095152Y-132562743D01*
X130115895Y-132512666D01*
X130150500Y-132338692D01*
X130150500Y-132161308D01*
X130150500Y-127889808D01*
X136350000Y-127889808D01*
X136350000Y-128110191D01*
X136384472Y-128327831D01*
X136452566Y-128537406D01*
X136452574Y-128537423D01*
X136518163Y-128666149D01*
X137018323Y-128165988D01*
X137028822Y-128218767D01*
X137085359Y-128355258D01*
X137167437Y-128478097D01*
X137271903Y-128582563D01*
X137394742Y-128664641D01*
X137531233Y-128721178D01*
X137584008Y-128731675D01*
X137083849Y-129231834D01*
X137083849Y-129231835D01*
X137212587Y-129297431D01*
X137212591Y-129297432D01*
X137422168Y-129365527D01*
X137639808Y-129399999D01*
X137639821Y-129400000D01*
X137860179Y-129400000D01*
X137860191Y-129399999D01*
X138077831Y-129365527D01*
X138287407Y-129297433D01*
X138287418Y-129297428D01*
X138416149Y-129231835D01*
X137915989Y-128731675D01*
X137968767Y-128721178D01*
X138105258Y-128664641D01*
X138228097Y-128582563D01*
X138332563Y-128478097D01*
X138414641Y-128355258D01*
X138471178Y-128218767D01*
X138481675Y-128165989D01*
X138981835Y-128666149D01*
X139047428Y-128537418D01*
X139047433Y-128537407D01*
X139115527Y-128327831D01*
X139149999Y-128110191D01*
X139150000Y-128110179D01*
X139150000Y-127889820D01*
X139149999Y-127889808D01*
X139115527Y-127672168D01*
X139047432Y-127462591D01*
X139047431Y-127462587D01*
X138981834Y-127333849D01*
X138481675Y-127834008D01*
X138471178Y-127781233D01*
X138414641Y-127644742D01*
X138332563Y-127521903D01*
X138228097Y-127417437D01*
X138105258Y-127335359D01*
X137968767Y-127278822D01*
X137915988Y-127268323D01*
X138416149Y-126768163D01*
X138287423Y-126702574D01*
X138287406Y-126702566D01*
X138077831Y-126634472D01*
X137860191Y-126600000D01*
X137639808Y-126600000D01*
X137422168Y-126634472D01*
X137212592Y-126702567D01*
X137212587Y-126702569D01*
X137083848Y-126768164D01*
X137584009Y-127268324D01*
X137531233Y-127278822D01*
X137394742Y-127335359D01*
X137271903Y-127417437D01*
X137167437Y-127521903D01*
X137085359Y-127644742D01*
X137028822Y-127781233D01*
X137018324Y-127834008D01*
X136518164Y-127333848D01*
X136452569Y-127462587D01*
X136452567Y-127462592D01*
X136384472Y-127672168D01*
X136350000Y-127889808D01*
X130150500Y-127889808D01*
X130150500Y-125726139D01*
X130169454Y-125630851D01*
X130223430Y-125550069D01*
X130400106Y-125373393D01*
X141729500Y-125373393D01*
X141729500Y-125546606D01*
X141729501Y-125546621D01*
X141756597Y-125717697D01*
X141810124Y-125882437D01*
X141810126Y-125882443D01*
X141888770Y-126036792D01*
X141990581Y-126176922D01*
X141990583Y-126176924D01*
X141990586Y-126176928D01*
X142113072Y-126299414D01*
X142113075Y-126299416D01*
X142113077Y-126299418D01*
X142253207Y-126401229D01*
X142253209Y-126401230D01*
X142253212Y-126401232D01*
X142407555Y-126479873D01*
X142572299Y-126533402D01*
X142743389Y-126560500D01*
X142743393Y-126560500D01*
X142916607Y-126560500D01*
X142916611Y-126560500D01*
X143087701Y-126533402D01*
X143252445Y-126479873D01*
X143406788Y-126401232D01*
X143546928Y-126299414D01*
X143669414Y-126176928D01*
X143771232Y-126036788D01*
X143849873Y-125882445D01*
X143903402Y-125717701D01*
X143930500Y-125546611D01*
X143930500Y-125373389D01*
X143903402Y-125202299D01*
X143849873Y-125037555D01*
X143771232Y-124883212D01*
X143771230Y-124883209D01*
X143771229Y-124883207D01*
X143669418Y-124743077D01*
X143669416Y-124743075D01*
X143669414Y-124743072D01*
X143546928Y-124620586D01*
X143546924Y-124620583D01*
X143546922Y-124620581D01*
X143406792Y-124518770D01*
X143252443Y-124440126D01*
X143252437Y-124440124D01*
X143158195Y-124409503D01*
X143087701Y-124386598D01*
X143087699Y-124386597D01*
X143087697Y-124386597D01*
X142916621Y-124359501D01*
X142916614Y-124359500D01*
X142916611Y-124359500D01*
X142743389Y-124359500D01*
X142743386Y-124359500D01*
X142743378Y-124359501D01*
X142572302Y-124386597D01*
X142407562Y-124440124D01*
X142407556Y-124440126D01*
X142253207Y-124518770D01*
X142113077Y-124620581D01*
X141990581Y-124743077D01*
X141888770Y-124883207D01*
X141810127Y-125037555D01*
X141756597Y-125202302D01*
X141729501Y-125373378D01*
X141729500Y-125373393D01*
X130400106Y-125373393D01*
X132550069Y-123223430D01*
X132630851Y-123169454D01*
X132726139Y-123150500D01*
X151338689Y-123150500D01*
X151338692Y-123150500D01*
X151512666Y-123115895D01*
X151594606Y-123081953D01*
X151676547Y-123048013D01*
X151764959Y-122988936D01*
X151824036Y-122949464D01*
X155674433Y-119099066D01*
X155755212Y-119045093D01*
X155850500Y-119026139D01*
X155945788Y-119045093D01*
X156026570Y-119099069D01*
X156080546Y-119179851D01*
X156099500Y-119275139D01*
X156099500Y-121523860D01*
X156080546Y-121619148D01*
X156026570Y-121699930D01*
X144949930Y-132776570D01*
X144869148Y-132830546D01*
X144773860Y-132849500D01*
X144250583Y-132849500D01*
X144155295Y-132830546D01*
X144074513Y-132776570D01*
X144020537Y-132695788D01*
X144001583Y-132600500D01*
X144020537Y-132505212D01*
X144074513Y-132424430D01*
X144099001Y-132402955D01*
X144182754Y-132338689D01*
X144317042Y-132235646D01*
X144525646Y-132027042D01*
X144705238Y-131792994D01*
X144852743Y-131537507D01*
X144965639Y-131264952D01*
X145041993Y-130979993D01*
X145080500Y-130687506D01*
X145080500Y-130392494D01*
X145041993Y-130100007D01*
X144965639Y-129815048D01*
X144852743Y-129542493D01*
X144705238Y-129287006D01*
X144525646Y-129052958D01*
X144317042Y-128844354D01*
X144317037Y-128844350D01*
X144317036Y-128844349D01*
X144082994Y-128664762D01*
X144082989Y-128664759D01*
X143995719Y-128614374D01*
X143827507Y-128517257D01*
X143827505Y-128517256D01*
X143827503Y-128517255D01*
X143827499Y-128517253D01*
X143554950Y-128404360D01*
X143431555Y-128371297D01*
X143269993Y-128328007D01*
X143269988Y-128328006D01*
X143269989Y-128328006D01*
X142977507Y-128289500D01*
X142977506Y-128289500D01*
X142682494Y-128289500D01*
X142682493Y-128289500D01*
X142390011Y-128328006D01*
X142105049Y-128404360D01*
X141832500Y-128517253D01*
X141832496Y-128517255D01*
X141577010Y-128664759D01*
X141577005Y-128664762D01*
X141342963Y-128844349D01*
X141134349Y-129052963D01*
X140954762Y-129287005D01*
X140954759Y-129287010D01*
X140807255Y-129542496D01*
X140807253Y-129542500D01*
X140694360Y-129815049D01*
X140618006Y-130100011D01*
X140579500Y-130392493D01*
X140579500Y-130687506D01*
X140607488Y-130900099D01*
X140618007Y-130979993D01*
X140623159Y-130999219D01*
X140694360Y-131264950D01*
X140807253Y-131537499D01*
X140807255Y-131537503D01*
X140807257Y-131537507D01*
X140848783Y-131609432D01*
X140954759Y-131792989D01*
X140954762Y-131792994D01*
X141075183Y-131949930D01*
X141134354Y-132027042D01*
X141342958Y-132235646D01*
X141342962Y-132235649D01*
X141342963Y-132235650D01*
X141560999Y-132402955D01*
X141625057Y-132476000D01*
X141656287Y-132567999D01*
X141649933Y-132664946D01*
X141606962Y-132752082D01*
X141533917Y-132816140D01*
X141441918Y-132847370D01*
X141409417Y-132849500D01*
X140890699Y-132849500D01*
X140813754Y-132837313D01*
X140664782Y-132788909D01*
X140415971Y-132749500D01*
X140415962Y-132749500D01*
X140164038Y-132749500D01*
X140164028Y-132749500D01*
X139915217Y-132788909D01*
X139675625Y-132866757D01*
X139675621Y-132866758D01*
X139675621Y-132866759D01*
X139451155Y-132981130D01*
X139451153Y-132981131D01*
X139451148Y-132981134D01*
X139247347Y-133129204D01*
X139069204Y-133307347D01*
X138921134Y-133511148D01*
X138921131Y-133511153D01*
X138921130Y-133511155D01*
X138888094Y-133575992D01*
X138806757Y-133735624D01*
X138758342Y-133884631D01*
X138746630Y-133912139D01*
X138746668Y-133912155D01*
X138674106Y-134087329D01*
X138674105Y-134087333D01*
X138674105Y-134087334D01*
X138639500Y-134261308D01*
X138639500Y-134438692D01*
X138655574Y-134519501D01*
X138674105Y-134612668D01*
X138710057Y-134699461D01*
X138741988Y-134776547D01*
X138741989Y-134776549D01*
X138746669Y-134787846D01*
X138746631Y-134787861D01*
X138758342Y-134815369D01*
X138806757Y-134964375D01*
X138806758Y-134964378D01*
X138806759Y-134964379D01*
X138921130Y-135188845D01*
X138921133Y-135188849D01*
X138921134Y-135188851D01*
X139047155Y-135362304D01*
X139069207Y-135392656D01*
X139247344Y-135570793D01*
X139451155Y-135718870D01*
X139675621Y-135833241D01*
X139915215Y-135911090D01*
X140002729Y-135924951D01*
X140164028Y-135950499D01*
X140164035Y-135950499D01*
X140164038Y-135950500D01*
X140164041Y-135950500D01*
X140415959Y-135950500D01*
X140415962Y-135950500D01*
X140415965Y-135950499D01*
X140415971Y-135950499D01*
X140533513Y-135931881D01*
X140664785Y-135911090D01*
X140904379Y-135833241D01*
X141128845Y-135718870D01*
X141332656Y-135570793D01*
X141332659Y-135570789D01*
X141340525Y-135565075D01*
X141428755Y-135524400D01*
X141525836Y-135520585D01*
X141616986Y-135554212D01*
X141688329Y-135620161D01*
X141729004Y-135708391D01*
X141732818Y-135727567D01*
X141756597Y-135877698D01*
X141810124Y-136042437D01*
X141810126Y-136042443D01*
X141888770Y-136196792D01*
X141990581Y-136336922D01*
X141990583Y-136336924D01*
X141990586Y-136336928D01*
X142113072Y-136459414D01*
X142113075Y-136459416D01*
X142113077Y-136459418D01*
X142253207Y-136561229D01*
X142253209Y-136561230D01*
X142253212Y-136561232D01*
X142407555Y-136639873D01*
X142572299Y-136693402D01*
X142743389Y-136720500D01*
X142743393Y-136720500D01*
X142916607Y-136720500D01*
X142916611Y-136720500D01*
X143087701Y-136693402D01*
X143252445Y-136639873D01*
X143406788Y-136561232D01*
X143546928Y-136459414D01*
X143669414Y-136336928D01*
X143771232Y-136196788D01*
X143849873Y-136042445D01*
X143903402Y-135877701D01*
X143930500Y-135706611D01*
X143930500Y-135533389D01*
X143930498Y-135533378D01*
X143908209Y-135392652D01*
X143903402Y-135362299D01*
X143849873Y-135197555D01*
X143771232Y-135043212D01*
X143771228Y-135043207D01*
X143771228Y-135043206D01*
X143766115Y-135034861D01*
X143767650Y-135033920D01*
X143732478Y-134957615D01*
X143728669Y-134860535D01*
X143762300Y-134769387D01*
X143828253Y-134698047D01*
X143916486Y-134657377D01*
X143974601Y-134650500D01*
X145338689Y-134650500D01*
X145338692Y-134650500D01*
X145512666Y-134615895D01*
X145613721Y-134574036D01*
X145676547Y-134548013D01*
X145764959Y-134488936D01*
X145824036Y-134449464D01*
X146033692Y-134239808D01*
X158140000Y-134239808D01*
X158140000Y-134460191D01*
X158174472Y-134677831D01*
X158242566Y-134887406D01*
X158242574Y-134887423D01*
X158308163Y-135016149D01*
X158808323Y-134515988D01*
X158818822Y-134568767D01*
X158875359Y-134705258D01*
X158957437Y-134828097D01*
X159061903Y-134932563D01*
X159184742Y-135014641D01*
X159321233Y-135071178D01*
X159374008Y-135081675D01*
X158873849Y-135581834D01*
X158873849Y-135581835D01*
X159002587Y-135647431D01*
X159002591Y-135647432D01*
X159212168Y-135715527D01*
X159429808Y-135749999D01*
X159429821Y-135750000D01*
X159650179Y-135750000D01*
X159650191Y-135749999D01*
X159867831Y-135715527D01*
X160077407Y-135647433D01*
X160077418Y-135647428D01*
X160206149Y-135581835D01*
X159705989Y-135081675D01*
X159758767Y-135071178D01*
X159895258Y-135014641D01*
X160018097Y-134932563D01*
X160122563Y-134828097D01*
X160204641Y-134705258D01*
X160261178Y-134568767D01*
X160271675Y-134515989D01*
X160779090Y-135023404D01*
X160833659Y-135025548D01*
X160921890Y-135066223D01*
X160987839Y-135137566D01*
X161021465Y-135228716D01*
X161017651Y-135325796D01*
X161012346Y-135344609D01*
X161006596Y-135362305D01*
X160979501Y-135533378D01*
X160979500Y-135533393D01*
X160979500Y-135706606D01*
X160979501Y-135706621D01*
X161006597Y-135877697D01*
X161060124Y-136042437D01*
X161060126Y-136042443D01*
X161138770Y-136196792D01*
X161240581Y-136336922D01*
X161240583Y-136336924D01*
X161240586Y-136336928D01*
X161363072Y-136459414D01*
X161363075Y-136459416D01*
X161363077Y-136459418D01*
X161503207Y-136561229D01*
X161503209Y-136561230D01*
X161503212Y-136561232D01*
X161657555Y-136639873D01*
X161822299Y-136693402D01*
X161993389Y-136720500D01*
X161993393Y-136720500D01*
X162166607Y-136720500D01*
X162166611Y-136720500D01*
X162337701Y-136693402D01*
X162502445Y-136639873D01*
X162656788Y-136561232D01*
X162796928Y-136459414D01*
X162919414Y-136336928D01*
X163021232Y-136196788D01*
X163099873Y-136042445D01*
X163153402Y-135877701D01*
X163180500Y-135706611D01*
X163180500Y-135533389D01*
X163153402Y-135362299D01*
X163099873Y-135197555D01*
X163025772Y-135052123D01*
X180699500Y-135052123D01*
X180699500Y-137147865D01*
X180699500Y-137147868D01*
X180699501Y-137147872D01*
X180701567Y-137167093D01*
X180705908Y-137207480D01*
X180705909Y-137207483D01*
X180756204Y-137342331D01*
X180842454Y-137457546D01*
X180957669Y-137543796D01*
X181092517Y-137594091D01*
X181152127Y-137600500D01*
X184447872Y-137600499D01*
X184507483Y-137594091D01*
X184642331Y-137543796D01*
X184757546Y-137457546D01*
X184843796Y-137342331D01*
X184894091Y-137207483D01*
X184900500Y-137147873D01*
X184900499Y-135052128D01*
X184894091Y-134992517D01*
X184843796Y-134857669D01*
X184757546Y-134742454D01*
X184642331Y-134656204D01*
X184534257Y-134615895D01*
X184507481Y-134605908D01*
X184447873Y-134599500D01*
X181152134Y-134599500D01*
X181152130Y-134599500D01*
X181152128Y-134599501D01*
X181139314Y-134600878D01*
X181092519Y-134605908D01*
X181092515Y-134605909D01*
X180957670Y-134656203D01*
X180842455Y-134742453D01*
X180842453Y-134742455D01*
X180756204Y-134857669D01*
X180705908Y-134992518D01*
X180699500Y-135052123D01*
X163025772Y-135052123D01*
X163021232Y-135043212D01*
X163021230Y-135043209D01*
X163021229Y-135043207D01*
X162919418Y-134903077D01*
X162919416Y-134903075D01*
X162919414Y-134903072D01*
X162796928Y-134780586D01*
X162796924Y-134780583D01*
X162796922Y-134780581D01*
X162656792Y-134678770D01*
X162502443Y-134600126D01*
X162502437Y-134600124D01*
X162405930Y-134568767D01*
X162337701Y-134546598D01*
X162337699Y-134546597D01*
X162337697Y-134546597D01*
X162166621Y-134519501D01*
X162166614Y-134519500D01*
X162166611Y-134519500D01*
X161993389Y-134519500D01*
X161993386Y-134519500D01*
X161993378Y-134519501D01*
X161822302Y-134546597D01*
X161657562Y-134600124D01*
X161657556Y-134600126D01*
X161503207Y-134678770D01*
X161363076Y-134780582D01*
X161363070Y-134780587D01*
X161341967Y-134801690D01*
X161261185Y-134855665D01*
X161165897Y-134874617D01*
X161070609Y-134855661D01*
X160989828Y-134801683D01*
X160935853Y-134720901D01*
X160916901Y-134625613D01*
X160919967Y-134586663D01*
X160939999Y-134460188D01*
X160940000Y-134460179D01*
X160940000Y-134239820D01*
X160939999Y-134239808D01*
X160905527Y-134022168D01*
X160837432Y-133812591D01*
X160837431Y-133812587D01*
X160771834Y-133683849D01*
X160271675Y-134184008D01*
X160261178Y-134131233D01*
X160204641Y-133994742D01*
X160122563Y-133871903D01*
X160018097Y-133767437D01*
X159895258Y-133685359D01*
X159758767Y-133628822D01*
X159705988Y-133618323D01*
X160206149Y-133118163D01*
X160077423Y-133052574D01*
X160077406Y-133052566D01*
X159867831Y-132984472D01*
X159650191Y-132950000D01*
X159429808Y-132950000D01*
X159212168Y-132984472D01*
X159002592Y-133052567D01*
X159002587Y-133052569D01*
X158873848Y-133118164D01*
X159374009Y-133618324D01*
X159321233Y-133628822D01*
X159184742Y-133685359D01*
X159061903Y-133767437D01*
X158957437Y-133871903D01*
X158875359Y-133994742D01*
X158818822Y-134131233D01*
X158808324Y-134184008D01*
X158308164Y-133683848D01*
X158242569Y-133812587D01*
X158242567Y-133812592D01*
X158174472Y-134022168D01*
X158140000Y-134239808D01*
X146033692Y-134239808D01*
X147391588Y-132881912D01*
X173799500Y-132881912D01*
X173799500Y-133118087D01*
X173799501Y-133118103D01*
X173836446Y-133351364D01*
X173900495Y-133548489D01*
X173909432Y-133575992D01*
X173964388Y-133683849D01*
X174016659Y-133786437D01*
X174155478Y-133977504D01*
X174155480Y-133977506D01*
X174155483Y-133977510D01*
X174322490Y-134144517D01*
X174322493Y-134144519D01*
X174322495Y-134144521D01*
X174513562Y-134283340D01*
X174513564Y-134283341D01*
X174513567Y-134283343D01*
X174724008Y-134390568D01*
X174948632Y-134463553D01*
X175181908Y-134500500D01*
X175181912Y-134500500D01*
X175418088Y-134500500D01*
X175418092Y-134500500D01*
X175651368Y-134463553D01*
X175875992Y-134390568D01*
X176086433Y-134283343D01*
X176259661Y-134157485D01*
X189208199Y-134157485D01*
X189300977Y-134204758D01*
X189495586Y-134267990D01*
X189697676Y-134299998D01*
X189697692Y-134300000D01*
X189902308Y-134300000D01*
X189902323Y-134299998D01*
X190104413Y-134267990D01*
X190299020Y-134204759D01*
X190299032Y-134204754D01*
X190391799Y-134157486D01*
X189799999Y-133565686D01*
X189208199Y-134157485D01*
X176259661Y-134157485D01*
X176277510Y-134144517D01*
X176444517Y-133977510D01*
X176444519Y-133977506D01*
X176444523Y-133977503D01*
X176444525Y-133977500D01*
X176482833Y-133924773D01*
X176482836Y-133924769D01*
X176564337Y-133812592D01*
X176583343Y-133786433D01*
X176690568Y-133575992D01*
X176763553Y-133351368D01*
X176800500Y-133118092D01*
X176800500Y-132897692D01*
X188500000Y-132897692D01*
X188500000Y-133102307D01*
X188500001Y-133102323D01*
X188532009Y-133304413D01*
X188595241Y-133499022D01*
X188642513Y-133591799D01*
X189234313Y-133000000D01*
X189168487Y-132934174D01*
X189300000Y-132934174D01*
X189300000Y-133065826D01*
X189334075Y-133192993D01*
X189399901Y-133307007D01*
X189492993Y-133400099D01*
X189607007Y-133465925D01*
X189734174Y-133500000D01*
X189865826Y-133500000D01*
X189992993Y-133465925D01*
X190107007Y-133400099D01*
X190200099Y-133307007D01*
X190265925Y-133192993D01*
X190300000Y-133065826D01*
X190300000Y-132934174D01*
X190265925Y-132807007D01*
X190200099Y-132692993D01*
X190107007Y-132599901D01*
X189992993Y-132534075D01*
X189865826Y-132500000D01*
X189734174Y-132500000D01*
X189607007Y-132534075D01*
X189492993Y-132599901D01*
X189399901Y-132692993D01*
X189334075Y-132807007D01*
X189300000Y-132934174D01*
X189168487Y-132934174D01*
X188642512Y-132408199D01*
X188595242Y-132500972D01*
X188532009Y-132695586D01*
X188500001Y-132897676D01*
X188500000Y-132897692D01*
X176800500Y-132897692D01*
X176800500Y-132881908D01*
X176763553Y-132648632D01*
X176690568Y-132424008D01*
X176583343Y-132213567D01*
X176583341Y-132213564D01*
X176583340Y-132213562D01*
X176444521Y-132022495D01*
X176444519Y-132022493D01*
X176444517Y-132022490D01*
X176277510Y-131855483D01*
X176277506Y-131855480D01*
X176277504Y-131855478D01*
X176259658Y-131842512D01*
X189208199Y-131842512D01*
X189800000Y-132434313D01*
X190391799Y-131842513D01*
X190299022Y-131795241D01*
X190104413Y-131732009D01*
X189902323Y-131700001D01*
X189902308Y-131700000D01*
X189697692Y-131700000D01*
X189697676Y-131700001D01*
X189495586Y-131732009D01*
X189300972Y-131795242D01*
X189208199Y-131842512D01*
X176259658Y-131842512D01*
X176086437Y-131716659D01*
X175875984Y-131609428D01*
X175866958Y-131605690D01*
X175868095Y-131602942D01*
X175799925Y-131564581D01*
X175785957Y-131551642D01*
X175300000Y-131065686D01*
X174814043Y-131551641D01*
X174733262Y-131605617D01*
X174732839Y-131605773D01*
X174723999Y-131609435D01*
X174513567Y-131716656D01*
X174322495Y-131855478D01*
X174155478Y-132022495D01*
X174016659Y-132213562D01*
X173909430Y-132424012D01*
X173836446Y-132648635D01*
X173799501Y-132881896D01*
X173799500Y-132881912D01*
X147391588Y-132881912D01*
X149881006Y-130392493D01*
X159829500Y-130392493D01*
X159829500Y-130687506D01*
X159857488Y-130900099D01*
X159868007Y-130979993D01*
X159873159Y-130999219D01*
X159944360Y-131264950D01*
X160057253Y-131537499D01*
X160057255Y-131537503D01*
X160057257Y-131537507D01*
X160098783Y-131609432D01*
X160204759Y-131792989D01*
X160204762Y-131792994D01*
X160325183Y-131949930D01*
X160384354Y-132027042D01*
X160592958Y-132235646D01*
X160827006Y-132415238D01*
X161082493Y-132562743D01*
X161355048Y-132675639D01*
X161640007Y-132751993D01*
X161859372Y-132780873D01*
X161932493Y-132790500D01*
X161932494Y-132790500D01*
X162227507Y-132790500D01*
X162276253Y-132784082D01*
X162519993Y-132751993D01*
X162804952Y-132675639D01*
X163077507Y-132562743D01*
X163332994Y-132415238D01*
X163567042Y-132235646D01*
X163775646Y-132027042D01*
X163955238Y-131792994D01*
X164102743Y-131537507D01*
X164215639Y-131264952D01*
X164291993Y-130979993D01*
X164330500Y-130687506D01*
X164330500Y-130392494D01*
X164291993Y-130100007D01*
X164215639Y-129815048D01*
X164102743Y-129542493D01*
X163955238Y-129287006D01*
X163775646Y-129052958D01*
X163567042Y-128844354D01*
X163567037Y-128844350D01*
X163567036Y-128844349D01*
X163332994Y-128664762D01*
X163332989Y-128664759D01*
X163245719Y-128614374D01*
X163077507Y-128517257D01*
X163077505Y-128517256D01*
X163077503Y-128517255D01*
X163077499Y-128517253D01*
X162804950Y-128404360D01*
X162681555Y-128371297D01*
X162519993Y-128328007D01*
X162519988Y-128328006D01*
X162519989Y-128328006D01*
X162227507Y-128289500D01*
X162227506Y-128289500D01*
X161932494Y-128289500D01*
X161932493Y-128289500D01*
X161640011Y-128328006D01*
X161355049Y-128404360D01*
X161082500Y-128517253D01*
X161082496Y-128517255D01*
X160827010Y-128664759D01*
X160827005Y-128664762D01*
X160592963Y-128844349D01*
X160384349Y-129052963D01*
X160204762Y-129287005D01*
X160204759Y-129287010D01*
X160057255Y-129542496D01*
X160057253Y-129542500D01*
X159944360Y-129815049D01*
X159868006Y-130100011D01*
X159829500Y-130392493D01*
X149881006Y-130392493D01*
X157309430Y-122964068D01*
X157390212Y-122910093D01*
X157485500Y-122891139D01*
X157580788Y-122910093D01*
X157661570Y-122964069D01*
X157715546Y-123044851D01*
X157734500Y-123140139D01*
X157734500Y-125888860D01*
X157715546Y-125984149D01*
X157710082Y-125992326D01*
X157661570Y-126064930D01*
X157661569Y-126064930D01*
X157389223Y-126337275D01*
X157308442Y-126391251D01*
X157213154Y-126410205D01*
X157174206Y-126407140D01*
X157125970Y-126399500D01*
X157125962Y-126399500D01*
X156874038Y-126399500D01*
X156874028Y-126399500D01*
X156625217Y-126438909D01*
X156385625Y-126516757D01*
X156385621Y-126516758D01*
X156385621Y-126516759D01*
X156161155Y-126631130D01*
X156161153Y-126631131D01*
X156161148Y-126631134D01*
X155957347Y-126779204D01*
X155779204Y-126957347D01*
X155631134Y-127161148D01*
X155631131Y-127161153D01*
X155631130Y-127161155D01*
X155585831Y-127250060D01*
X155516757Y-127385625D01*
X155438909Y-127625217D01*
X155399500Y-127874028D01*
X155399500Y-128125971D01*
X155438909Y-128374782D01*
X155504284Y-128575987D01*
X155516759Y-128614379D01*
X155631130Y-128838845D01*
X155631133Y-128838849D01*
X155631134Y-128838851D01*
X155731871Y-128977504D01*
X155779207Y-129042656D01*
X155957344Y-129220793D01*
X156161155Y-129368870D01*
X156385621Y-129483241D01*
X156625215Y-129561090D01*
X156712729Y-129574951D01*
X156874028Y-129600499D01*
X156874035Y-129600499D01*
X156874038Y-129600500D01*
X156874041Y-129600500D01*
X157125959Y-129600500D01*
X157125962Y-129600500D01*
X157125965Y-129600499D01*
X157125971Y-129600499D01*
X157243513Y-129581881D01*
X157374785Y-129561090D01*
X157614379Y-129483241D01*
X157838845Y-129368870D01*
X158042656Y-129220793D01*
X158220793Y-129042656D01*
X158368870Y-128838845D01*
X158483241Y-128614379D01*
X158561090Y-128374785D01*
X158600500Y-128125962D01*
X158600500Y-127874038D01*
X158592859Y-127825796D01*
X158596672Y-127728720D01*
X158637346Y-127640489D01*
X158662717Y-127610781D01*
X159334464Y-126939036D01*
X159390292Y-126855483D01*
X159433013Y-126791547D01*
X159494769Y-126642454D01*
X159500895Y-126627666D01*
X159535500Y-126453692D01*
X159535500Y-126276308D01*
X159535500Y-125373393D01*
X160979500Y-125373393D01*
X160979500Y-125546606D01*
X160979501Y-125546621D01*
X161006597Y-125717697D01*
X161060124Y-125882437D01*
X161060126Y-125882443D01*
X161138770Y-126036792D01*
X161240581Y-126176922D01*
X161240583Y-126176924D01*
X161240586Y-126176928D01*
X161363072Y-126299414D01*
X161363075Y-126299416D01*
X161363077Y-126299418D01*
X161503207Y-126401229D01*
X161503209Y-126401230D01*
X161503212Y-126401232D01*
X161657555Y-126479873D01*
X161822299Y-126533402D01*
X161993389Y-126560500D01*
X161993393Y-126560500D01*
X162166607Y-126560500D01*
X162166611Y-126560500D01*
X162337701Y-126533402D01*
X162502445Y-126479873D01*
X162656788Y-126401232D01*
X162796928Y-126299414D01*
X162919414Y-126176928D01*
X163021232Y-126036788D01*
X163099873Y-125882445D01*
X163153402Y-125717701D01*
X163180500Y-125546611D01*
X163180500Y-125373389D01*
X163153402Y-125202299D01*
X163099873Y-125037555D01*
X163021232Y-124883212D01*
X163021230Y-124883209D01*
X163021229Y-124883207D01*
X162919418Y-124743077D01*
X162919416Y-124743075D01*
X162919414Y-124743072D01*
X162796928Y-124620586D01*
X162796924Y-124620583D01*
X162796922Y-124620581D01*
X162656792Y-124518770D01*
X162502443Y-124440126D01*
X162502437Y-124440124D01*
X162408195Y-124409503D01*
X162337701Y-124386598D01*
X162337699Y-124386597D01*
X162337697Y-124386597D01*
X162166621Y-124359501D01*
X162166614Y-124359500D01*
X162166611Y-124359500D01*
X161993389Y-124359500D01*
X161993386Y-124359500D01*
X161993378Y-124359501D01*
X161822302Y-124386597D01*
X161657562Y-124440124D01*
X161657556Y-124440126D01*
X161503207Y-124518770D01*
X161363077Y-124620581D01*
X161240581Y-124743077D01*
X161138770Y-124883207D01*
X161060127Y-125037555D01*
X161006597Y-125202302D01*
X160979501Y-125373378D01*
X160979500Y-125373393D01*
X159535500Y-125373393D01*
X159535500Y-116885266D01*
X160749500Y-116885266D01*
X160749500Y-117114734D01*
X160751612Y-117130777D01*
X160779451Y-117342234D01*
X160838841Y-117563885D01*
X160926653Y-117775882D01*
X160926655Y-117775887D01*
X161026369Y-117948597D01*
X161041389Y-117974612D01*
X161045029Y-117979356D01*
X161123562Y-118081702D01*
X161181081Y-118156661D01*
X161343339Y-118318919D01*
X161525388Y-118458611D01*
X161525397Y-118458616D01*
X161724106Y-118573341D01*
X161724109Y-118573342D01*
X161724112Y-118573344D01*
X161936113Y-118661158D01*
X162157762Y-118720548D01*
X162385266Y-118750500D01*
X163114734Y-118750500D01*
X163342238Y-118720548D01*
X163563887Y-118661158D01*
X163775888Y-118573344D01*
X163974612Y-118458611D01*
X164156661Y-118318919D01*
X164318919Y-118156661D01*
X164458611Y-117974612D01*
X164558896Y-117800913D01*
X164573345Y-117775887D01*
X164573346Y-117775882D01*
X164575782Y-117770001D01*
X164661158Y-117563887D01*
X164720548Y-117342238D01*
X164750500Y-117114734D01*
X164750500Y-116885266D01*
X164720548Y-116657762D01*
X164661158Y-116436113D01*
X164573344Y-116224112D01*
X164541191Y-116168422D01*
X164458616Y-116025397D01*
X164458611Y-116025388D01*
X164318919Y-115843339D01*
X164156661Y-115681081D01*
X164156656Y-115681077D01*
X164156655Y-115681076D01*
X163974621Y-115541396D01*
X163974622Y-115541396D01*
X163974612Y-115541389D01*
X163942382Y-115522781D01*
X163775893Y-115426658D01*
X163775882Y-115426653D01*
X163563885Y-115338841D01*
X163435911Y-115304551D01*
X163342238Y-115279452D01*
X163342235Y-115279451D01*
X163342236Y-115279451D01*
X163114734Y-115249500D01*
X162385266Y-115249500D01*
X162157765Y-115279451D01*
X161936114Y-115338841D01*
X161724117Y-115426653D01*
X161724106Y-115426658D01*
X161525397Y-115541383D01*
X161525378Y-115541396D01*
X161343344Y-115681076D01*
X161181076Y-115843344D01*
X161041396Y-116025378D01*
X161041383Y-116025397D01*
X160926658Y-116224106D01*
X160926653Y-116224117D01*
X160838841Y-116436114D01*
X160779451Y-116657765D01*
X160763118Y-116781826D01*
X160749500Y-116885266D01*
X159535500Y-116885266D01*
X159535500Y-109410139D01*
X159554454Y-109314851D01*
X159608430Y-109234069D01*
X159689212Y-109180093D01*
X159784500Y-109161139D01*
X159879788Y-109180093D01*
X159960566Y-109234066D01*
X160425964Y-109699464D01*
X160573453Y-109798013D01*
X160573455Y-109798013D01*
X160573457Y-109798015D01*
X160737331Y-109865894D01*
X160737332Y-109865894D01*
X160737334Y-109865895D01*
X160911308Y-109900500D01*
X160911309Y-109900500D01*
X163523860Y-109900500D01*
X163619148Y-109919454D01*
X163699930Y-109973430D01*
X163900460Y-110173960D01*
X163954436Y-110254742D01*
X163973390Y-110350030D01*
X163954436Y-110445318D01*
X163900460Y-110526100D01*
X163819678Y-110580076D01*
X163724390Y-110599030D01*
X163629102Y-110580076D01*
X163611348Y-110571892D01*
X163594989Y-110563557D01*
X163362962Y-110488167D01*
X163362949Y-110488163D01*
X163150000Y-110454435D01*
X163150000Y-111551473D01*
X163118408Y-111519881D01*
X162981591Y-111440889D01*
X162828991Y-111400000D01*
X162671009Y-111400000D01*
X162518409Y-111440889D01*
X162381592Y-111519881D01*
X162350000Y-111551473D01*
X162350000Y-110454435D01*
X162137050Y-110488163D01*
X162137037Y-110488167D01*
X161905010Y-110563557D01*
X161687616Y-110674325D01*
X161490246Y-110817723D01*
X161317723Y-110990246D01*
X161174325Y-111187616D01*
X161063557Y-111405009D01*
X161000201Y-111600000D01*
X162301473Y-111600000D01*
X162269881Y-111631592D01*
X162190889Y-111768409D01*
X162150000Y-111921009D01*
X162150000Y-112078991D01*
X162190889Y-112231591D01*
X162269881Y-112368408D01*
X162301473Y-112400000D01*
X161000201Y-112400000D01*
X161063557Y-112594990D01*
X161174325Y-112812383D01*
X161317723Y-113009753D01*
X161490246Y-113182276D01*
X161687616Y-113325674D01*
X161905010Y-113436442D01*
X162137038Y-113511833D01*
X162350000Y-113545562D01*
X162350000Y-112448527D01*
X162381592Y-112480119D01*
X162518409Y-112559111D01*
X162671009Y-112600000D01*
X162828991Y-112600000D01*
X162981591Y-112559111D01*
X163118408Y-112480119D01*
X163150000Y-112448527D01*
X163150000Y-113545561D01*
X163362961Y-113511833D01*
X163594989Y-113436442D01*
X163812383Y-113325674D01*
X164009753Y-113182276D01*
X164182276Y-113009753D01*
X164325674Y-112812383D01*
X164436442Y-112594990D01*
X164499799Y-112400000D01*
X163198527Y-112400000D01*
X163230119Y-112368408D01*
X163309111Y-112231591D01*
X163350000Y-112078991D01*
X163350000Y-111921009D01*
X163309111Y-111768409D01*
X163230119Y-111631592D01*
X163198527Y-111600000D01*
X164499799Y-111600000D01*
X164436441Y-111405007D01*
X164436441Y-111405006D01*
X164428109Y-111388654D01*
X164401737Y-111295147D01*
X164413155Y-111198665D01*
X164460627Y-111113898D01*
X164536924Y-111053749D01*
X164630431Y-111027377D01*
X164726913Y-111038795D01*
X164811680Y-111086267D01*
X164826039Y-111099539D01*
X174326570Y-120600069D01*
X174380546Y-120680851D01*
X174399500Y-120776139D01*
X174399500Y-126259990D01*
X174380546Y-126355278D01*
X174326570Y-126436060D01*
X174245788Y-126490036D01*
X174207161Y-126500129D01*
X174207681Y-126502326D01*
X174192515Y-126505909D01*
X174057670Y-126556203D01*
X173942455Y-126642453D01*
X173942453Y-126642455D01*
X173856204Y-126757669D01*
X173805908Y-126892518D01*
X173799500Y-126952123D01*
X173799500Y-129047865D01*
X173799500Y-129047868D01*
X173799501Y-129047872D01*
X173801567Y-129067093D01*
X173805908Y-129107480D01*
X173805909Y-129107484D01*
X173852173Y-129231523D01*
X173856204Y-129242331D01*
X173942454Y-129357546D01*
X174057669Y-129443796D01*
X174067598Y-129447499D01*
X174150252Y-129498557D01*
X174207078Y-129577360D01*
X174229421Y-129671910D01*
X174213881Y-129767815D01*
X174192900Y-129810880D01*
X174188147Y-129818636D01*
X174095242Y-130000974D01*
X174095240Y-130000980D01*
X174032009Y-130195586D01*
X174000001Y-130397676D01*
X174000000Y-130397692D01*
X174000000Y-130602307D01*
X174000001Y-130602323D01*
X174032009Y-130804413D01*
X174095241Y-130999022D01*
X174142513Y-131091798D01*
X174800000Y-130434311D01*
X174800000Y-130565826D01*
X174834075Y-130692993D01*
X174899901Y-130807007D01*
X174992993Y-130900099D01*
X175107007Y-130965925D01*
X175234174Y-131000000D01*
X175365826Y-131000000D01*
X175492993Y-130965925D01*
X175607007Y-130900099D01*
X175700099Y-130807007D01*
X175765925Y-130692993D01*
X175800000Y-130565826D01*
X175800000Y-130434314D01*
X176457485Y-131091799D01*
X176457486Y-131091799D01*
X176504754Y-130999032D01*
X176504755Y-130999029D01*
X176544511Y-130876673D01*
X176591983Y-130791906D01*
X176668280Y-130731757D01*
X176761787Y-130705385D01*
X176858269Y-130716803D01*
X176943036Y-130764275D01*
X177003185Y-130840572D01*
X177011371Y-130858328D01*
X177069058Y-130997596D01*
X177069062Y-130997603D01*
X177184018Y-131169649D01*
X177184020Y-131169651D01*
X177184023Y-131169655D01*
X177330345Y-131315977D01*
X177330348Y-131315979D01*
X177330350Y-131315981D01*
X177502396Y-131430937D01*
X177502402Y-131430941D01*
X177502404Y-131430941D01*
X177502406Y-131430943D01*
X177629854Y-131483733D01*
X177693580Y-131510130D01*
X177896535Y-131550500D01*
X177896537Y-131550500D01*
X178703463Y-131550500D01*
X178703465Y-131550500D01*
X178906420Y-131510130D01*
X179097598Y-131430941D01*
X179269655Y-131315977D01*
X179415977Y-131169655D01*
X179530941Y-130997598D01*
X179610130Y-130806420D01*
X179650500Y-130603465D01*
X179650500Y-130397638D01*
X181499500Y-130397638D01*
X181499500Y-130602361D01*
X181531522Y-130804531D01*
X181594778Y-130999214D01*
X181594782Y-130999224D01*
X181687711Y-131181607D01*
X181687713Y-131181610D01*
X181808034Y-131347219D01*
X181952781Y-131491966D01*
X182118390Y-131612287D01*
X182300781Y-131705220D01*
X182495466Y-131768477D01*
X182566575Y-131779739D01*
X182697638Y-131800499D01*
X182697645Y-131800499D01*
X182697648Y-131800500D01*
X182697651Y-131800500D01*
X182902349Y-131800500D01*
X182902352Y-131800500D01*
X182902355Y-131800499D01*
X182902361Y-131800499D01*
X182997870Y-131785371D01*
X183104534Y-131768477D01*
X183299219Y-131705220D01*
X183481610Y-131612287D01*
X183647219Y-131491966D01*
X183791966Y-131347219D01*
X183912287Y-131181610D01*
X184005220Y-130999219D01*
X184068477Y-130804534D01*
X184100500Y-130602352D01*
X184100500Y-130397648D01*
X184100499Y-130397645D01*
X184100499Y-130397638D01*
X184068477Y-130195468D01*
X184068477Y-130195466D01*
X184005220Y-130000781D01*
X183912287Y-129818390D01*
X183791966Y-129652781D01*
X183647219Y-129508034D01*
X183481610Y-129387713D01*
X183481609Y-129387712D01*
X183481607Y-129387711D01*
X183299224Y-129294782D01*
X183299214Y-129294778D01*
X183104531Y-129231522D01*
X182902361Y-129199500D01*
X182902352Y-129199500D01*
X182697648Y-129199500D01*
X182697638Y-129199500D01*
X182495468Y-129231522D01*
X182300785Y-129294778D01*
X182300775Y-129294782D01*
X182118392Y-129387711D01*
X181952779Y-129508035D01*
X181808035Y-129652779D01*
X181687711Y-129818392D01*
X181594782Y-130000775D01*
X181594778Y-130000785D01*
X181531522Y-130195468D01*
X181499500Y-130397638D01*
X179650500Y-130397638D01*
X179650500Y-130396535D01*
X179610130Y-130193580D01*
X179571327Y-130099901D01*
X179530943Y-130002406D01*
X179530937Y-130002396D01*
X179415981Y-129830350D01*
X179415979Y-129830348D01*
X179415977Y-129830345D01*
X179269655Y-129684023D01*
X179269651Y-129684020D01*
X179269649Y-129684018D01*
X179097603Y-129569062D01*
X179097593Y-129569056D01*
X178906421Y-129489870D01*
X178838768Y-129476413D01*
X178703465Y-129449500D01*
X177896535Y-129449500D01*
X177801065Y-129468490D01*
X177693578Y-129489870D01*
X177502406Y-129569056D01*
X177502396Y-129569062D01*
X177330350Y-129684018D01*
X177184018Y-129830350D01*
X177069062Y-130002396D01*
X177069058Y-130002403D01*
X177011371Y-130141671D01*
X176986029Y-130179595D01*
X176961606Y-130218137D01*
X176959097Y-130219902D01*
X176957394Y-130222452D01*
X176919480Y-130247784D01*
X176882155Y-130274054D01*
X176879160Y-130274725D01*
X176876612Y-130276428D01*
X176831883Y-130285325D01*
X176787353Y-130295309D01*
X176784331Y-130294783D01*
X176781324Y-130295382D01*
X176736585Y-130286482D01*
X176691634Y-130278668D01*
X176689043Y-130277026D01*
X176686036Y-130276428D01*
X176648111Y-130251086D01*
X176609570Y-130226663D01*
X176608125Y-130224369D01*
X176605255Y-130222451D01*
X176553653Y-130147212D01*
X176391746Y-129781629D01*
X176384672Y-129750081D01*
X176373483Y-129719749D01*
X176374137Y-129703091D01*
X176370491Y-129686827D01*
X176376028Y-129654975D01*
X176377298Y-129622669D01*
X176384276Y-129607531D01*
X176387132Y-129591108D01*
X176404439Y-129563797D01*
X176417974Y-129534439D01*
X176430213Y-129523124D01*
X176439137Y-129509044D01*
X176465576Y-129490435D01*
X176489318Y-129468490D01*
X176513498Y-129456708D01*
X176518588Y-129453127D01*
X176522779Y-129452187D01*
X176532398Y-129447500D01*
X176542331Y-129443796D01*
X176657546Y-129357546D01*
X176743796Y-129242331D01*
X176794091Y-129107483D01*
X176800500Y-129047873D01*
X176800499Y-126952128D01*
X176794091Y-126892517D01*
X176743796Y-126757669D01*
X176657546Y-126642454D01*
X176542331Y-126556204D01*
X176407483Y-126505909D01*
X176407478Y-126505907D01*
X176392326Y-126502327D01*
X176393253Y-126498402D01*
X176328847Y-126477807D01*
X176254676Y-126415055D01*
X176210166Y-126328695D01*
X176200500Y-126259991D01*
X176200500Y-120211309D01*
X176200499Y-120211304D01*
X176165895Y-120037340D01*
X176165894Y-120037334D01*
X176098013Y-119873453D01*
X175999464Y-119725965D01*
X175941543Y-119668044D01*
X175874035Y-119600535D01*
X175874035Y-119600536D01*
X166849070Y-110575570D01*
X166795094Y-110494788D01*
X166776140Y-110399500D01*
X166795094Y-110304212D01*
X166849070Y-110223430D01*
X166929852Y-110169454D01*
X167025140Y-110150500D01*
X170573860Y-110150500D01*
X170669148Y-110169454D01*
X170749930Y-110223430D01*
X183500930Y-122974430D01*
X183554906Y-123055212D01*
X183573860Y-123150500D01*
X183554906Y-123245788D01*
X183500930Y-123326570D01*
X183420148Y-123380546D01*
X183324860Y-123399500D01*
X181152134Y-123399500D01*
X181152130Y-123399500D01*
X181152128Y-123399501D01*
X181139314Y-123400878D01*
X181092519Y-123405908D01*
X181092515Y-123405909D01*
X180957670Y-123456203D01*
X180842455Y-123542453D01*
X180842453Y-123542455D01*
X180756204Y-123657669D01*
X180705908Y-123792518D01*
X180699500Y-123852123D01*
X180699500Y-125947865D01*
X180699500Y-125947868D01*
X180699501Y-125947872D01*
X180701567Y-125967093D01*
X180705908Y-126007480D01*
X180705909Y-126007484D01*
X180727335Y-126064930D01*
X180756204Y-126142331D01*
X180842454Y-126257546D01*
X180957669Y-126343796D01*
X181092517Y-126394091D01*
X181152127Y-126400500D01*
X184447872Y-126400499D01*
X184507483Y-126394091D01*
X184642331Y-126343796D01*
X184757546Y-126257546D01*
X184843796Y-126142331D01*
X184894091Y-126007483D01*
X184900500Y-125947873D01*
X184900499Y-124975136D01*
X184919453Y-124879850D01*
X184973429Y-124799069D01*
X185054211Y-124745092D01*
X185149499Y-124726138D01*
X185244787Y-124745092D01*
X185325568Y-124799068D01*
X185325569Y-124799068D01*
X188226570Y-127700069D01*
X188280546Y-127780851D01*
X188299500Y-127876139D01*
X188299500Y-128118087D01*
X188299501Y-128118103D01*
X188336446Y-128351364D01*
X188396898Y-128537418D01*
X188409432Y-128575992D01*
X188507101Y-128767678D01*
X188516659Y-128786437D01*
X188655478Y-128977504D01*
X188655479Y-128977505D01*
X188655483Y-128977510D01*
X188822490Y-129144517D01*
X188822493Y-129144519D01*
X188822495Y-129144521D01*
X189013562Y-129283340D01*
X189013564Y-129283341D01*
X189013567Y-129283343D01*
X189224008Y-129390568D01*
X189448632Y-129463553D01*
X189681908Y-129500500D01*
X189681912Y-129500500D01*
X189918088Y-129500500D01*
X189918092Y-129500500D01*
X190151368Y-129463553D01*
X190375992Y-129390568D01*
X190586433Y-129283343D01*
X190777510Y-129144517D01*
X190944517Y-128977510D01*
X191049055Y-128833625D01*
X191120397Y-128767678D01*
X191211547Y-128734051D01*
X191308627Y-128737865D01*
X191396858Y-128778539D01*
X191462807Y-128849882D01*
X191496434Y-128941032D01*
X191499500Y-128979985D01*
X191499500Y-132451510D01*
X191480546Y-132546798D01*
X191426570Y-132627580D01*
X191345788Y-132681556D01*
X191250500Y-132700510D01*
X191155212Y-132681556D01*
X191074430Y-132627580D01*
X191020454Y-132546798D01*
X191013687Y-132528456D01*
X191004758Y-132500976D01*
X190957485Y-132408199D01*
X190365686Y-132999999D01*
X190957486Y-133591799D01*
X191004754Y-133499032D01*
X191004760Y-133499017D01*
X191013687Y-133471545D01*
X191061158Y-133386777D01*
X191137456Y-133326629D01*
X191230963Y-133300257D01*
X191327444Y-133311676D01*
X191412212Y-133359147D01*
X191472360Y-133435445D01*
X191498732Y-133528952D01*
X191499500Y-133548489D01*
X191499500Y-138750500D01*
X191480546Y-138845788D01*
X191426570Y-138926570D01*
X191345788Y-138980546D01*
X191250500Y-138999500D01*
X92749500Y-138999500D01*
X92654212Y-138980546D01*
X92573430Y-138926570D01*
X92519454Y-138845788D01*
X92500500Y-138750500D01*
X92500500Y-127889808D01*
X97850000Y-127889808D01*
X97850000Y-128110191D01*
X97884472Y-128327831D01*
X97952566Y-128537406D01*
X97952574Y-128537423D01*
X98018163Y-128666149D01*
X98518323Y-128165988D01*
X98528822Y-128218767D01*
X98585359Y-128355258D01*
X98667437Y-128478097D01*
X98771903Y-128582563D01*
X98894742Y-128664641D01*
X99031233Y-128721178D01*
X99084008Y-128731675D01*
X98583849Y-129231834D01*
X98583849Y-129231835D01*
X98712587Y-129297431D01*
X98712591Y-129297432D01*
X98922168Y-129365527D01*
X99139808Y-129399999D01*
X99139821Y-129400000D01*
X99360179Y-129400000D01*
X99360191Y-129399999D01*
X99577831Y-129365527D01*
X99787407Y-129297433D01*
X99787418Y-129297428D01*
X99916149Y-129231835D01*
X99415989Y-128731675D01*
X99468767Y-128721178D01*
X99605258Y-128664641D01*
X99728097Y-128582563D01*
X99832563Y-128478097D01*
X99914641Y-128355258D01*
X99971178Y-128218767D01*
X99981675Y-128165989D01*
X100481835Y-128666149D01*
X100547428Y-128537418D01*
X100547433Y-128537407D01*
X100615527Y-128327831D01*
X100649999Y-128110191D01*
X100650000Y-128110179D01*
X100650000Y-127889820D01*
X100649999Y-127889808D01*
X100615527Y-127672168D01*
X100547432Y-127462591D01*
X100547431Y-127462587D01*
X100481834Y-127333849D01*
X99981675Y-127834008D01*
X99971178Y-127781233D01*
X99914641Y-127644742D01*
X99832563Y-127521903D01*
X99728097Y-127417437D01*
X99605258Y-127335359D01*
X99468767Y-127278822D01*
X99415988Y-127268323D01*
X99916149Y-126768163D01*
X99787423Y-126702574D01*
X99787406Y-126702566D01*
X99577831Y-126634472D01*
X99360191Y-126600000D01*
X99139808Y-126600000D01*
X98922168Y-126634472D01*
X98712592Y-126702567D01*
X98712587Y-126702569D01*
X98583848Y-126768164D01*
X99084009Y-127268324D01*
X99031233Y-127278822D01*
X98894742Y-127335359D01*
X98771903Y-127417437D01*
X98667437Y-127521903D01*
X98585359Y-127644742D01*
X98528822Y-127781233D01*
X98518324Y-127834008D01*
X98018164Y-127333848D01*
X97952569Y-127462587D01*
X97952567Y-127462592D01*
X97884472Y-127672168D01*
X97850000Y-127889808D01*
X92500500Y-127889808D01*
X92500500Y-125373393D01*
X103229500Y-125373393D01*
X103229500Y-125546606D01*
X103229501Y-125546621D01*
X103256597Y-125717697D01*
X103310124Y-125882437D01*
X103310126Y-125882443D01*
X103388770Y-126036792D01*
X103490581Y-126176922D01*
X103490583Y-126176924D01*
X103490586Y-126176928D01*
X103613072Y-126299414D01*
X103613075Y-126299416D01*
X103613077Y-126299418D01*
X103753207Y-126401229D01*
X103753209Y-126401230D01*
X103753212Y-126401232D01*
X103907555Y-126479873D01*
X104072299Y-126533402D01*
X104243389Y-126560500D01*
X104243393Y-126560500D01*
X104416607Y-126560500D01*
X104416611Y-126560500D01*
X104587701Y-126533402D01*
X104752445Y-126479873D01*
X104906788Y-126401232D01*
X105046928Y-126299414D01*
X105169414Y-126176928D01*
X105271232Y-126036788D01*
X105349873Y-125882445D01*
X105403402Y-125717701D01*
X105430500Y-125546611D01*
X105430500Y-125373389D01*
X105403402Y-125202299D01*
X105349873Y-125037555D01*
X105271232Y-124883212D01*
X105271230Y-124883209D01*
X105271229Y-124883207D01*
X105169418Y-124743077D01*
X105169416Y-124743075D01*
X105169414Y-124743072D01*
X105046928Y-124620586D01*
X105046924Y-124620583D01*
X105046922Y-124620581D01*
X104906792Y-124518770D01*
X104752443Y-124440126D01*
X104752437Y-124440124D01*
X104658195Y-124409503D01*
X104587701Y-124386598D01*
X104587699Y-124386597D01*
X104587697Y-124386597D01*
X104416621Y-124359501D01*
X104416614Y-124359500D01*
X104416611Y-124359500D01*
X104243389Y-124359500D01*
X104243386Y-124359500D01*
X104243378Y-124359501D01*
X104072302Y-124386597D01*
X103907562Y-124440124D01*
X103907556Y-124440126D01*
X103753207Y-124518770D01*
X103613077Y-124620581D01*
X103490581Y-124743077D01*
X103388770Y-124883207D01*
X103310127Y-125037555D01*
X103256597Y-125202302D01*
X103229501Y-125373378D01*
X103229500Y-125373393D01*
X92500500Y-125373393D01*
X92500500Y-118970000D01*
X93150119Y-118970000D01*
X93223596Y-119079966D01*
X93335033Y-119191403D01*
X93466057Y-119278950D01*
X93466062Y-119278953D01*
X93611646Y-119339256D01*
X93766210Y-119370000D01*
X93844999Y-119370000D01*
X93845000Y-119369999D01*
X93845000Y-118970001D01*
X94645000Y-118970001D01*
X94645000Y-119369999D01*
X94645001Y-119370000D01*
X94723790Y-119370000D01*
X94878353Y-119339256D01*
X95023937Y-119278953D01*
X95023942Y-119278950D01*
X95154966Y-119191403D01*
X95266403Y-119079966D01*
X95339880Y-118970000D01*
X97180119Y-118970000D01*
X97253596Y-119079966D01*
X97365033Y-119191403D01*
X97496057Y-119278950D01*
X97496062Y-119278953D01*
X97641646Y-119339256D01*
X97796210Y-119370000D01*
X98024999Y-119370000D01*
X98025000Y-119369999D01*
X98025000Y-118970001D01*
X98825000Y-118970001D01*
X98825000Y-119369999D01*
X98825001Y-119370000D01*
X99053790Y-119370000D01*
X99208353Y-119339256D01*
X99353937Y-119278953D01*
X99353942Y-119278950D01*
X99484966Y-119191403D01*
X99596403Y-119079966D01*
X99669880Y-118970000D01*
X98825001Y-118970000D01*
X98825000Y-118970001D01*
X98025000Y-118970001D01*
X98024999Y-118970000D01*
X97180119Y-118970000D01*
X95339880Y-118970000D01*
X94645001Y-118970000D01*
X94645000Y-118970001D01*
X93845000Y-118970001D01*
X93844999Y-118970000D01*
X93150119Y-118970000D01*
X92500500Y-118970000D01*
X92500500Y-118530504D01*
X93545000Y-118530504D01*
X93545000Y-118609496D01*
X93565444Y-118685796D01*
X93604940Y-118754205D01*
X93660795Y-118810060D01*
X93729204Y-118849556D01*
X93805504Y-118870000D01*
X94684496Y-118870000D01*
X94760796Y-118849556D01*
X94829205Y-118810060D01*
X94885060Y-118754205D01*
X94924556Y-118685796D01*
X94945000Y-118609496D01*
X94945000Y-118530504D01*
X97575000Y-118530504D01*
X97575000Y-118609496D01*
X97595444Y-118685796D01*
X97634940Y-118754205D01*
X97690795Y-118810060D01*
X97759204Y-118849556D01*
X97835504Y-118870000D01*
X99014496Y-118870000D01*
X99090796Y-118849556D01*
X99159205Y-118810060D01*
X99215060Y-118754205D01*
X99254556Y-118685796D01*
X99275000Y-118609496D01*
X99275000Y-118530504D01*
X99254556Y-118454204D01*
X99215060Y-118385795D01*
X99159205Y-118329940D01*
X99090796Y-118290444D01*
X99014496Y-118270000D01*
X97835504Y-118270000D01*
X97759204Y-118290444D01*
X97690795Y-118329940D01*
X97634940Y-118385795D01*
X97595444Y-118454204D01*
X97575000Y-118530504D01*
X94945000Y-118530504D01*
X94924556Y-118454204D01*
X94885060Y-118385795D01*
X94829205Y-118329940D01*
X94760796Y-118290444D01*
X94684496Y-118270000D01*
X93805504Y-118270000D01*
X93729204Y-118290444D01*
X93660795Y-118329940D01*
X93604940Y-118385795D01*
X93565444Y-118454204D01*
X93545000Y-118530504D01*
X92500500Y-118530504D01*
X92500500Y-118169999D01*
X93150119Y-118169999D01*
X93150120Y-118170000D01*
X93844999Y-118170000D01*
X93845000Y-118169999D01*
X93845000Y-117770001D01*
X94645000Y-117770001D01*
X94645000Y-118169999D01*
X94645001Y-118170000D01*
X95339880Y-118170000D01*
X95339880Y-118169999D01*
X97180119Y-118169999D01*
X97180120Y-118170000D01*
X98024999Y-118170000D01*
X98025000Y-118169999D01*
X98025000Y-117890555D01*
X98043954Y-117795267D01*
X98097930Y-117714485D01*
X98149495Y-117674917D01*
X98278365Y-117600515D01*
X98385515Y-117493365D01*
X98461281Y-117362135D01*
X98500500Y-117215766D01*
X98500500Y-117064234D01*
X98486046Y-117010292D01*
X98461281Y-116917866D01*
X98461281Y-116917865D01*
X98385515Y-116786635D01*
X98278365Y-116679485D01*
X98278362Y-116679483D01*
X98278361Y-116679482D01*
X98214659Y-116642704D01*
X98147135Y-116603719D01*
X98147132Y-116603718D01*
X98147134Y-116603718D01*
X98000766Y-116564500D01*
X97849234Y-116564500D01*
X97702866Y-116603718D01*
X97571638Y-116679482D01*
X97464482Y-116786638D01*
X97388718Y-116917866D01*
X97349500Y-117064233D01*
X97349500Y-117215766D01*
X97388718Y-117362133D01*
X97464482Y-117493361D01*
X97464483Y-117493362D01*
X97464485Y-117493365D01*
X97483002Y-117511882D01*
X97536976Y-117592661D01*
X97555930Y-117687949D01*
X97536976Y-117783237D01*
X97483000Y-117864019D01*
X97445269Y-117894984D01*
X97365032Y-117948597D01*
X97253596Y-118060033D01*
X97180119Y-118169999D01*
X95339880Y-118169999D01*
X95266403Y-118060033D01*
X95154966Y-117948596D01*
X95023942Y-117861049D01*
X95023937Y-117861046D01*
X94878353Y-117800743D01*
X94723790Y-117770000D01*
X94645001Y-117770000D01*
X94645000Y-117770001D01*
X93845000Y-117770001D01*
X93844999Y-117770000D01*
X93766210Y-117770000D01*
X93611646Y-117800743D01*
X93466062Y-117861046D01*
X93466057Y-117861049D01*
X93335033Y-117948596D01*
X93223596Y-118060033D01*
X93150119Y-118169999D01*
X92500500Y-118169999D01*
X92500500Y-110330000D01*
X93150119Y-110330000D01*
X93223596Y-110439966D01*
X93335033Y-110551403D01*
X93466057Y-110638950D01*
X93466062Y-110638953D01*
X93611646Y-110699256D01*
X93766210Y-110730000D01*
X93844999Y-110730000D01*
X93845000Y-110729999D01*
X93845000Y-110330001D01*
X94645000Y-110330001D01*
X94645000Y-110729999D01*
X94645001Y-110730000D01*
X94723790Y-110730000D01*
X94878353Y-110699256D01*
X95023937Y-110638953D01*
X95023942Y-110638950D01*
X95154966Y-110551403D01*
X95266403Y-110439966D01*
X95339880Y-110330000D01*
X97180119Y-110330000D01*
X97253596Y-110439966D01*
X97365033Y-110551403D01*
X97445267Y-110605014D01*
X97513966Y-110673713D01*
X97551146Y-110763473D01*
X97551145Y-110860628D01*
X97513966Y-110950387D01*
X97483003Y-110988117D01*
X97464484Y-111006635D01*
X97464482Y-111006638D01*
X97388718Y-111137866D01*
X97349500Y-111284233D01*
X97349500Y-111435766D01*
X97388718Y-111582133D01*
X97464482Y-111713361D01*
X97464483Y-111713362D01*
X97464485Y-111713365D01*
X97571635Y-111820515D01*
X97702865Y-111896281D01*
X97849234Y-111935500D01*
X98000766Y-111935500D01*
X98147135Y-111896281D01*
X98278365Y-111820515D01*
X98385515Y-111713365D01*
X98461281Y-111582135D01*
X98500500Y-111435766D01*
X98500500Y-111284234D01*
X98493644Y-111258648D01*
X98477572Y-111198665D01*
X98461281Y-111137865D01*
X98402686Y-111036376D01*
X98385517Y-111006638D01*
X98385516Y-111006637D01*
X98385515Y-111006635D01*
X98278365Y-110899485D01*
X98149498Y-110825083D01*
X98125013Y-110803610D01*
X98097930Y-110785514D01*
X98088802Y-110771853D01*
X98076455Y-110761025D01*
X98062050Y-110731815D01*
X98043954Y-110704732D01*
X98040749Y-110688621D01*
X98033484Y-110673889D01*
X98025000Y-110609444D01*
X98025000Y-110330001D01*
X98825000Y-110330001D01*
X98825000Y-110729999D01*
X98825001Y-110730000D01*
X99053790Y-110730000D01*
X99208353Y-110699256D01*
X99353937Y-110638953D01*
X99353942Y-110638950D01*
X99484966Y-110551403D01*
X99596403Y-110439966D01*
X99669880Y-110330000D01*
X98825001Y-110330000D01*
X98825000Y-110330001D01*
X98025000Y-110330001D01*
X98024999Y-110330000D01*
X97180119Y-110330000D01*
X95339880Y-110330000D01*
X94645001Y-110330000D01*
X94645000Y-110330001D01*
X93845000Y-110330001D01*
X93844999Y-110330000D01*
X93150119Y-110330000D01*
X92500500Y-110330000D01*
X92500500Y-109890504D01*
X93545000Y-109890504D01*
X93545000Y-109969496D01*
X93565444Y-110045796D01*
X93604940Y-110114205D01*
X93660795Y-110170060D01*
X93729204Y-110209556D01*
X93805504Y-110230000D01*
X94684496Y-110230000D01*
X94760796Y-110209556D01*
X94829205Y-110170060D01*
X94885060Y-110114205D01*
X94924556Y-110045796D01*
X94945000Y-109969496D01*
X94945000Y-109890504D01*
X97575000Y-109890504D01*
X97575000Y-109969496D01*
X97595444Y-110045796D01*
X97634940Y-110114205D01*
X97690795Y-110170060D01*
X97759204Y-110209556D01*
X97835504Y-110230000D01*
X99014496Y-110230000D01*
X99090796Y-110209556D01*
X99159205Y-110170060D01*
X99215060Y-110114205D01*
X99254556Y-110045796D01*
X99275000Y-109969496D01*
X99275000Y-109890504D01*
X99254556Y-109814204D01*
X99215060Y-109745795D01*
X99159205Y-109689940D01*
X99090796Y-109650444D01*
X99014496Y-109630000D01*
X97835504Y-109630000D01*
X97759204Y-109650444D01*
X97690795Y-109689940D01*
X97634940Y-109745795D01*
X97595444Y-109814204D01*
X97575000Y-109890504D01*
X94945000Y-109890504D01*
X94924556Y-109814204D01*
X94885060Y-109745795D01*
X94829205Y-109689940D01*
X94760796Y-109650444D01*
X94684496Y-109630000D01*
X93805504Y-109630000D01*
X93729204Y-109650444D01*
X93660795Y-109689940D01*
X93604940Y-109745795D01*
X93565444Y-109814204D01*
X93545000Y-109890504D01*
X92500500Y-109890504D01*
X92500500Y-109529999D01*
X93150119Y-109529999D01*
X93150120Y-109530000D01*
X93844999Y-109530000D01*
X93845000Y-109529999D01*
X93845000Y-109130001D01*
X94645000Y-109130001D01*
X94645000Y-109529999D01*
X94645001Y-109530000D01*
X95339880Y-109530000D01*
X95339880Y-109529999D01*
X97180119Y-109529999D01*
X97180120Y-109530000D01*
X98024999Y-109530000D01*
X98025000Y-109529999D01*
X98025000Y-109130001D01*
X98825000Y-109130001D01*
X98825000Y-109529999D01*
X98825001Y-109530000D01*
X99669880Y-109530000D01*
X99669880Y-109529999D01*
X99596403Y-109420033D01*
X99484966Y-109308596D01*
X99353942Y-109221049D01*
X99353937Y-109221046D01*
X99208353Y-109160743D01*
X99053790Y-109130000D01*
X98825001Y-109130000D01*
X98825000Y-109130001D01*
X98025000Y-109130001D01*
X98024999Y-109130000D01*
X97796210Y-109130000D01*
X97641646Y-109160743D01*
X97496062Y-109221046D01*
X97496057Y-109221049D01*
X97365033Y-109308596D01*
X97253596Y-109420033D01*
X97180119Y-109529999D01*
X95339880Y-109529999D01*
X95266403Y-109420033D01*
X95154966Y-109308596D01*
X95023942Y-109221049D01*
X95023937Y-109221046D01*
X94878353Y-109160743D01*
X94723790Y-109130000D01*
X94645001Y-109130000D01*
X94645000Y-109130001D01*
X93845000Y-109130001D01*
X93844999Y-109130000D01*
X93766210Y-109130000D01*
X93611646Y-109160743D01*
X93466062Y-109221046D01*
X93466057Y-109221049D01*
X93335033Y-109308596D01*
X93223596Y-109420033D01*
X93150119Y-109529999D01*
X92500500Y-109529999D01*
X92500500Y-87268551D01*
X97099500Y-87268551D01*
X97099500Y-90411448D01*
X97114804Y-90625429D01*
X97115620Y-90629179D01*
X97175631Y-90905046D01*
X97195902Y-90959394D01*
X97275631Y-91173158D01*
X97275633Y-91173161D01*
X97412774Y-91424315D01*
X97584261Y-91653395D01*
X97786605Y-91855739D01*
X98015685Y-92027226D01*
X98230459Y-92144502D01*
X98266841Y-92164368D01*
X98274043Y-92167054D01*
X98534954Y-92264369D01*
X98814572Y-92325196D01*
X99028552Y-92340500D01*
X99028557Y-92340500D01*
X99755260Y-92340500D01*
X99850548Y-92359454D01*
X99931330Y-92413430D01*
X99985306Y-92494212D01*
X100004260Y-92589500D01*
X99985306Y-92684788D01*
X99931330Y-92765570D01*
X99850548Y-92819546D01*
X99803836Y-92833716D01*
X99797190Y-92835037D01*
X99486936Y-92929152D01*
X99486915Y-92929160D01*
X99187369Y-93053235D01*
X99187358Y-93053241D01*
X98901432Y-93206071D01*
X98901415Y-93206082D01*
X98631820Y-93386217D01*
X98565956Y-93440270D01*
X99315361Y-94189675D01*
X99113289Y-94344731D01*
X98904731Y-94553289D01*
X98749675Y-94755361D01*
X98000270Y-94005956D01*
X97946217Y-94071820D01*
X97766082Y-94341415D01*
X97766071Y-94341432D01*
X97613241Y-94627358D01*
X97613235Y-94627369D01*
X97489160Y-94926915D01*
X97489152Y-94926936D01*
X97395038Y-95237188D01*
X97331780Y-95555210D01*
X97300000Y-95877880D01*
X97300000Y-96202119D01*
X97331780Y-96524789D01*
X97395038Y-96842811D01*
X97489152Y-97153063D01*
X97489160Y-97153084D01*
X97613235Y-97452630D01*
X97613241Y-97452641D01*
X97766071Y-97738567D01*
X97766090Y-97738598D01*
X97946213Y-98008172D01*
X97946214Y-98008174D01*
X98000270Y-98074042D01*
X98749674Y-97324637D01*
X98904731Y-97526711D01*
X99113289Y-97735269D01*
X99315359Y-97890324D01*
X98565956Y-98639728D01*
X98631810Y-98693774D01*
X98631830Y-98693788D01*
X98901401Y-98873909D01*
X98901432Y-98873928D01*
X99187358Y-99026758D01*
X99187369Y-99026764D01*
X99486915Y-99150839D01*
X99486936Y-99150847D01*
X99797188Y-99244961D01*
X100115210Y-99308219D01*
X100437880Y-99339999D01*
X100437884Y-99340000D01*
X100762116Y-99340000D01*
X100762119Y-99339999D01*
X101084789Y-99308219D01*
X101402811Y-99244961D01*
X101713063Y-99150847D01*
X101713084Y-99150839D01*
X102012630Y-99026764D01*
X102012641Y-99026758D01*
X102298567Y-98873928D01*
X102298598Y-98873909D01*
X102568178Y-98693782D01*
X102634042Y-98639728D01*
X101884638Y-97890324D01*
X102086711Y-97735269D01*
X102295269Y-97526711D01*
X102450324Y-97324638D01*
X103199728Y-98074042D01*
X103253782Y-98008178D01*
X103433909Y-97738598D01*
X103433928Y-97738567D01*
X103586758Y-97452641D01*
X103586764Y-97452630D01*
X103710839Y-97153084D01*
X103710847Y-97153063D01*
X103804961Y-96842811D01*
X103868219Y-96524789D01*
X103899999Y-96202119D01*
X103900000Y-96202116D01*
X103900000Y-95877884D01*
X103899999Y-95877880D01*
X103868219Y-95555210D01*
X103804961Y-95237188D01*
X103710847Y-94926936D01*
X103710839Y-94926915D01*
X103586764Y-94627369D01*
X103586758Y-94627358D01*
X103433928Y-94341432D01*
X103433909Y-94341401D01*
X103253788Y-94071830D01*
X103253774Y-94071810D01*
X103199728Y-94005956D01*
X102450324Y-94755359D01*
X102295269Y-94553289D01*
X102086711Y-94344731D01*
X101884637Y-94189674D01*
X102634042Y-93440270D01*
X102568174Y-93386214D01*
X102568172Y-93386213D01*
X102298598Y-93206090D01*
X102298567Y-93206071D01*
X102012641Y-93053241D01*
X102012630Y-93053235D01*
X101713084Y-92929160D01*
X101713063Y-92929152D01*
X101402809Y-92835037D01*
X101396164Y-92833716D01*
X101306404Y-92796537D01*
X101237705Y-92727838D01*
X101200525Y-92638079D01*
X101200524Y-92540924D01*
X101237703Y-92451164D01*
X101306402Y-92382465D01*
X101396161Y-92345285D01*
X101444740Y-92340500D01*
X102171443Y-92340500D01*
X102171448Y-92340500D01*
X102385428Y-92325196D01*
X102665046Y-92264369D01*
X102933161Y-92164367D01*
X103184315Y-92027226D01*
X103413395Y-91855739D01*
X103615739Y-91653395D01*
X103787226Y-91424315D01*
X103924367Y-91173161D01*
X104024369Y-90905046D01*
X104085196Y-90625428D01*
X104100500Y-90411448D01*
X104100500Y-87268552D01*
X104085196Y-87054572D01*
X104024369Y-86774954D01*
X103924367Y-86506839D01*
X103787226Y-86255685D01*
X103615739Y-86026605D01*
X103413395Y-85824261D01*
X103226170Y-85684106D01*
X103184317Y-85652775D01*
X102933158Y-85515631D01*
X102787970Y-85461479D01*
X102665046Y-85415631D01*
X102665047Y-85415631D01*
X102385429Y-85354804D01*
X102171448Y-85339500D01*
X99028552Y-85339500D01*
X99028551Y-85339500D01*
X98814570Y-85354804D01*
X98534954Y-85415631D01*
X98266841Y-85515631D01*
X98015682Y-85652775D01*
X97851951Y-85775343D01*
X97786605Y-85824261D01*
X97584261Y-86026605D01*
X97548846Y-86073914D01*
X97412775Y-86255682D01*
X97275631Y-86506841D01*
X97175631Y-86774954D01*
X97114804Y-87054570D01*
X97099500Y-87268551D01*
X92500500Y-87268551D01*
X92500500Y-75749500D01*
X92519454Y-75654212D01*
X92573430Y-75573430D01*
X92654212Y-75519454D01*
X92749500Y-75500500D01*
X133751000Y-75500500D01*
X133846288Y-75519454D01*
G37*
%TD.AperFunction*%
%TD*%
M02*
