%TF.GenerationSoftware,KiCad,Pcbnew,9.0.8-9.0.8~ubuntu24.04.1*%
%TF.CreationDate,2026-05-04T20:39:50+03:00*%
%TF.ProjectId,PCB_mc,5043425f-6d63-42e6-9b69-6361645f7063,rev?*%
%TF.SameCoordinates,Original*%
%TF.FileFunction,Soldermask,Top*%
%TF.FilePolarity,Negative*%
%FSLAX46Y46*%
G04 Gerber Fmt 4.6, Leading zero omitted, Abs format (unit mm)*
G04 Created by KiCad (PCBNEW 9.0.8-9.0.8~ubuntu24.04.1) date 2026-05-04 20:39:50*
%MOMM*%
%LPD*%
G01*
G04 APERTURE LIST*
G04 Aperture macros list*
%AMRoundRect*
0 Rectangle with rounded corners*
0 $1 Rounding radius*
0 $2 $3 $4 $5 $6 $7 $8 $9 X,Y pos of 4 corners*
0 Add a 4 corners polygon primitive as box body*
4,1,4,$2,$3,$4,$5,$6,$7,$8,$9,$2,$3,0*
0 Add four circle primitives for the rounded corners*
1,1,$1+$1,$2,$3*
1,1,$1+$1,$4,$5*
1,1,$1+$1,$6,$7*
1,1,$1+$1,$8,$9*
0 Add four rect primitives between the rounded corners*
20,1,$1+$1,$2,$3,$4,$5,0*
20,1,$1+$1,$4,$5,$6,$7,0*
20,1,$1+$1,$6,$7,$8,$9,0*
20,1,$1+$1,$8,$9,$2,$3,0*%
G04 Aperture macros list end*
%ADD10RoundRect,0.300000X-0.450000X-1.000000X0.450000X-1.000000X0.450000X1.000000X-0.450000X1.000000X0*%
%ADD11RoundRect,0.150000X-0.825000X-0.150000X0.825000X-0.150000X0.825000X0.150000X-0.825000X0.150000X0*%
%ADD12R,2.410000X3.300000*%
%ADD13R,1.500000X0.900000*%
%ADD14R,0.900000X1.500000*%
%ADD15C,0.600000*%
%ADD16R,3.900000X3.900000*%
%ADD17O,2.200000X1.600000*%
%ADD18C,2.100000*%
%ADD19R,2.000000X2.000000*%
%ADD20C,2.000000*%
%ADD21R,3.200000X2.000000*%
%ADD22C,1.700000*%
%ADD23C,4.000000*%
%ADD24C,2.200000*%
%ADD25C,0.650000*%
%ADD26RoundRect,0.150000X-0.425000X0.150000X-0.425000X-0.150000X0.425000X-0.150000X0.425000X0.150000X0*%
%ADD27RoundRect,0.075000X-0.500000X0.075000X-0.500000X-0.075000X0.500000X-0.075000X0.500000X0.075000X0*%
%ADD28O,2.100000X1.000000*%
%ADD29O,1.800000X1.000000*%
%ADD30RoundRect,0.250000X0.650000X-0.412500X0.650000X0.412500X-0.650000X0.412500X-0.650000X-0.412500X0*%
%ADD31RoundRect,0.250001X-0.462499X-0.624999X0.462499X-0.624999X0.462499X0.624999X-0.462499X0.624999X0*%
%ADD32RoundRect,0.250000X-0.412500X-0.650000X0.412500X-0.650000X0.412500X0.650000X-0.412500X0.650000X0*%
%ADD33RoundRect,0.250000X0.625000X-0.400000X0.625000X0.400000X-0.625000X0.400000X-0.625000X-0.400000X0*%
%ADD34RoundRect,0.250000X-0.400000X-0.625000X0.400000X-0.625000X0.400000X0.625000X-0.400000X0.625000X0*%
%ADD35O,3.000000X2.500000*%
%ADD36RoundRect,0.250001X0.624999X-0.462499X0.624999X0.462499X-0.624999X0.462499X-0.624999X-0.462499X0*%
%ADD37RoundRect,0.250000X0.400000X0.625000X-0.400000X0.625000X-0.400000X-0.625000X0.400000X-0.625000X0*%
%ADD38RoundRect,0.150000X-0.512500X-0.150000X0.512500X-0.150000X0.512500X0.150000X-0.512500X0.150000X0*%
%ADD39RoundRect,1.500000X-1.500000X1.500000X-1.500000X-1.500000X1.500000X-1.500000X1.500000X1.500000X0*%
%ADD40C,6.000000*%
%ADD41RoundRect,0.250000X-0.725000X0.600000X-0.725000X-0.600000X0.725000X-0.600000X0.725000X0.600000X0*%
%ADD42O,1.950000X1.700000*%
%ADD43RoundRect,0.225000X0.375000X-0.225000X0.375000X0.225000X-0.375000X0.225000X-0.375000X-0.225000X0*%
G04 APERTURE END LIST*
D10*
%TO.C,SW6*%
X135500000Y-83000000D03*
X140000000Y-83000000D03*
X144500000Y-83000000D03*
%TD*%
D11*
%TO.C,U3*%
X119425000Y-97635000D03*
X119425000Y-98905000D03*
X119425000Y-100175000D03*
X119425000Y-101445000D03*
X124375000Y-101445000D03*
X124375000Y-100175000D03*
X124375000Y-98905000D03*
X124375000Y-97635000D03*
D12*
X121900000Y-99540000D03*
%TD*%
D13*
%TO.C,U1*%
X149250000Y-82740000D03*
X149250000Y-84010000D03*
X149250000Y-85280000D03*
X149250000Y-86550000D03*
X149250000Y-87820000D03*
X149250000Y-89090000D03*
X149250000Y-90360000D03*
X149250000Y-91630000D03*
X149250000Y-92900000D03*
X149250000Y-94170000D03*
X149250000Y-95440000D03*
X149250000Y-96710000D03*
X149250000Y-97980000D03*
X149250000Y-99250000D03*
D14*
X151015000Y-100500000D03*
X152285000Y-100500000D03*
X153555000Y-100500000D03*
X154825000Y-100500000D03*
X156095000Y-100500000D03*
X157365000Y-100500000D03*
X158635000Y-100500000D03*
X159905000Y-100500000D03*
X161175000Y-100500000D03*
X162445000Y-100500000D03*
X163715000Y-100500000D03*
X164985000Y-100500000D03*
D13*
X166750000Y-99250000D03*
X166750000Y-97980000D03*
X166750000Y-96710000D03*
X166750000Y-95440000D03*
X166750000Y-94170000D03*
X166750000Y-92900000D03*
X166750000Y-91630000D03*
X166750000Y-90360000D03*
X166750000Y-89090000D03*
X166750000Y-87820000D03*
X166750000Y-86550000D03*
X166750000Y-85280000D03*
X166750000Y-84010000D03*
X166750000Y-82740000D03*
D15*
X155100000Y-89760000D03*
X155100000Y-91160000D03*
X155800000Y-89060000D03*
X155800000Y-90460000D03*
X155800000Y-91860000D03*
X156500000Y-89760000D03*
D16*
X156500000Y-90460000D03*
D15*
X156500000Y-91160000D03*
X157200000Y-89060000D03*
X157200000Y-90460000D03*
X157200000Y-91860000D03*
X157900000Y-89760000D03*
X157900000Y-91160000D03*
%TD*%
D17*
%TO.C,SW5*%
X178300000Y-130500000D03*
D18*
X182800000Y-130500000D03*
D19*
X175300000Y-128000000D03*
D20*
X175300000Y-133000000D03*
X175300000Y-130500000D03*
D21*
X182800000Y-124900000D03*
X182800000Y-136100000D03*
D20*
X189800000Y-133000000D03*
X189800000Y-128000000D03*
%TD*%
D22*
%TO.C,SW4*%
X162080000Y-135620000D03*
D23*
X162080000Y-130540000D03*
D22*
X162080000Y-125460000D03*
D24*
X157000000Y-128000000D03*
X159540000Y-134350000D03*
%TD*%
D22*
%TO.C,SW3*%
X142830000Y-135620000D03*
D23*
X142830000Y-130540000D03*
D22*
X142830000Y-125460000D03*
D24*
X137750000Y-128000000D03*
X140290000Y-134350000D03*
%TD*%
D22*
%TO.C,SW2*%
X123580000Y-135620000D03*
D23*
X123580000Y-130540000D03*
D22*
X123580000Y-125460000D03*
D24*
X118500000Y-128000000D03*
X121040000Y-134350000D03*
%TD*%
D22*
%TO.C,SW1*%
X104330000Y-135620000D03*
D23*
X104330000Y-130540000D03*
D22*
X104330000Y-125460000D03*
D24*
X99250000Y-128000000D03*
X101790000Y-134350000D03*
%TD*%
D25*
%TO.C,J1*%
X97925000Y-111360000D03*
X97925000Y-117140000D03*
D26*
X99000000Y-111050000D03*
X99000000Y-111850000D03*
D27*
X99000000Y-113000000D03*
X99000000Y-114000000D03*
X99000000Y-114500000D03*
X99000000Y-115500000D03*
D26*
X99000000Y-116650000D03*
X99000000Y-117450000D03*
X99000000Y-117450000D03*
X99000000Y-116650000D03*
D27*
X99000000Y-116000000D03*
X99000000Y-115000000D03*
X99000000Y-113500000D03*
X99000000Y-112500000D03*
D26*
X99000000Y-111850000D03*
X99000000Y-111050000D03*
D28*
X98425000Y-109930000D03*
D29*
X94245000Y-109930000D03*
D28*
X98425000Y-118570000D03*
D29*
X94245000Y-118570000D03*
%TD*%
D30*
%TO.C,C4*%
X132000000Y-83902500D03*
X132000000Y-80777500D03*
%TD*%
D31*
%TO.C,F1*%
X108762500Y-87000000D03*
X111737500Y-87000000D03*
%TD*%
D32*
%TO.C,C6*%
X111975000Y-91340000D03*
X115100000Y-91340000D03*
%TD*%
D33*
%TO.C,R8*%
X135050000Y-91440000D03*
X135050000Y-88340000D03*
%TD*%
D34*
%TO.C,R6*%
X112000000Y-98840000D03*
X115100000Y-98840000D03*
%TD*%
D33*
%TO.C,R7*%
X129600000Y-91390000D03*
X129600000Y-88290000D03*
%TD*%
D35*
%TO.C,SW7*%
X150250000Y-112000000D03*
X162750000Y-112000000D03*
X150250000Y-117000000D03*
X162750000Y-117000000D03*
%TD*%
D36*
%TO.C,D2*%
X135100000Y-97890000D03*
X135100000Y-94915000D03*
%TD*%
D34*
%TO.C,R2*%
X103450000Y-117000000D03*
X106550000Y-117000000D03*
%TD*%
D37*
%TO.C,R4*%
X137300000Y-110000000D03*
X134200000Y-110000000D03*
%TD*%
D35*
%TO.C,SW8*%
X117250000Y-112000000D03*
X129750000Y-112000000D03*
X117250000Y-117000000D03*
X129750000Y-117000000D03*
%TD*%
D32*
%TO.C,C2*%
X143187500Y-117000000D03*
X146312500Y-117000000D03*
%TD*%
D36*
%TO.C,D1*%
X129600000Y-97877500D03*
X129600000Y-94902500D03*
%TD*%
D37*
%TO.C,R5*%
X146300000Y-110000000D03*
X143200000Y-110000000D03*
%TD*%
D30*
%TO.C,C7*%
X115000000Y-83812500D03*
X115000000Y-80687500D03*
%TD*%
D34*
%TO.C,R3*%
X120500000Y-91340000D03*
X123600000Y-91340000D03*
%TD*%
D32*
%TO.C,C3*%
X134187500Y-117000000D03*
X137312500Y-117000000D03*
%TD*%
D34*
%TO.C,R1*%
X103450000Y-112000000D03*
X106550000Y-112000000D03*
%TD*%
D38*
%TO.C,U2*%
X125325000Y-81340000D03*
X125325000Y-82290000D03*
X125325000Y-83240000D03*
X127600000Y-83240000D03*
X127600000Y-81340000D03*
%TD*%
D30*
%TO.C,C5*%
X120100000Y-83902500D03*
X120100000Y-80777500D03*
%TD*%
D39*
%TO.C,BT1*%
X100600000Y-88840000D03*
D40*
X100600000Y-96040000D03*
%TD*%
D41*
%TO.C,lcd1*%
X172500000Y-86000000D03*
D42*
X172500000Y-88500000D03*
X172500000Y-91000000D03*
X172500000Y-93500000D03*
%TD*%
D43*
%TO.C,D3*%
X141000000Y-93150000D03*
X141000000Y-89850000D03*
%TD*%
%TO.C,D4*%
X145000000Y-93150000D03*
X145000000Y-89850000D03*
%TD*%
M02*
