M48
; DRILL file {KiCad 9.0.8-9.0.8~ubuntu24.04.1} date 2026-05-04T17:06:16+0300
; FORMAT={-:-/ absolute / metric / decimal}
; #@! TF.CreationDate,2026-05-04T17:06:16+03:00
; #@! TF.GenerationSoftware,Kicad,Pcbnew,9.0.8-9.0.8~ubuntu24.04.1
; #@! TF.FileFunction,Plated,1,2,PTH
FMAT,2
METRIC
; #@! TA.AperFunction,Plated,PTH,ComponentDrill
T1C0.200
; #@! TA.AperFunction,Plated,PTH,ViaDrill
T2C0.300
; #@! TA.AperFunction,Plated,PTH,ViaDrill
T3C0.500
; #@! TA.AperFunction,Plated,PTH,ComponentDrill
T4C0.600
; #@! TA.AperFunction,Plated,PTH,ComponentDrill
T5C0.950
; #@! TA.AperFunction,Plated,PTH,ComponentDrill
T6C1.000
; #@! TA.AperFunction,Plated,PTH,ComponentDrill
T7C1.200
; #@! TA.AperFunction,Plated,PTH,ComponentDrill
T8C1.500
; #@! TA.AperFunction,Plated,PTH,ViaDrill
T9C3.500
; #@! TA.AperFunction,Plated,PTH,ComponentDrill
T10C4.500
%
G90
G05
T1
X121.2Y-98.34
X121.2Y-99.54
X121.2Y-100.74
X122.6Y-98.34
X122.6Y-99.54
X122.6Y-100.74
X155.1Y-89.76
X155.1Y-91.16
X155.8Y-89.06
X155.8Y-90.46
X155.8Y-91.86
X156.5Y-89.76
X156.5Y-91.16
X157.2Y-89.06
X157.2Y-90.46
X157.2Y-91.86
X157.9Y-89.76
X157.9Y-91.16
T2
X100.3Y-117.2
X101.0Y-111.0
X102.5Y-114.0
X103.5Y-115.5
X116.1Y-102.8
X123.5Y-94.0
X126.0Y-95.2
X129.8Y-83.9
X142.75Y-90.25
X146.4Y-90.25
X147.2Y-84.01
X147.5Y-98.0
X147.6Y-99.3
X153.0Y-105.0
X155.0Y-105.0
X157.0Y-105.0
X158.635Y-104.865
X159.905Y-104.8
X162.0Y-105.025
X164.45Y-104.95
X164.5Y-93.0
X164.5Y-94.5
X168.0Y-107.5
X169.35Y-103.55
T3
X122.5Y-83.902
X126.2Y-78.5
X142.95Y-103.55
X143.0Y-95.4
X150.9Y-86.55
X151.0Y-87.82
T5
X172.5Y-86.0
X172.5Y-88.5
X172.5Y-91.0
X172.5Y-93.5
T6
X139.46Y-84.5
X142.0Y-84.5
X144.54Y-84.5
X175.3Y-128.0
X175.3Y-130.5
X175.3Y-133.0
X189.8Y-128.0
X189.8Y-133.0
T7
X117.25Y-112.0
X117.25Y-117.0
X129.75Y-112.0
X129.75Y-117.0
X150.25Y-112.0
X150.25Y-117.0
X162.75Y-112.0
X162.75Y-117.0
T8
X99.25Y-128.0
X101.79Y-134.35
X118.5Y-128.0
X121.04Y-134.35
X137.75Y-128.0
X140.29Y-134.35
X157.0Y-128.0
X159.54Y-134.35
T9
X97.0Y-80.0
X187.0Y-80.0
T10
X100.6Y-88.84
X100.6Y-96.04
T4
G00X94.645Y-109.93
M15
G01X93.845Y-109.93
M16
G05
G00X94.645Y-118.57
M15
G01X93.845Y-118.57
M16
G05
G00X98.975Y-109.93
M15
G01X97.875Y-109.93
M16
G05
G00X98.975Y-118.57
M15
G01X97.875Y-118.57
M16
G05
T8
G00X182.15Y-124.9
M15
G01X183.45Y-124.9
M16
G05
G00X182.15Y-136.1
M15
G01X183.45Y-136.1
M16
G05
M30
