%TF.GenerationSoftware,KiCad,Pcbnew,9.0.8-9.0.8~ubuntu24.04.1*%
%TF.CreationDate,2026-05-04T20:39:50+03:00*%
%TF.ProjectId,PCB_mc,5043425f-6d63-42e6-9b69-6361645f7063,rev?*%
%TF.SameCoordinates,Original*%
%TF.FileFunction,Legend,Bot*%
%TF.FilePolarity,Positive*%
%FSLAX46Y46*%
G04 Gerber Fmt 4.6, Leading zero omitted, Abs format (unit mm)*
G04 Created by KiCad (PCBNEW 9.0.8-9.0.8~ubuntu24.04.1) date 2026-05-04 20:39:50*
%MOMM*%
%LPD*%
G01*
G04 APERTURE LIST*
%ADD10C,0.150000*%
%ADD11C,0.120000*%
G04 APERTURE END LIST*
D10*
X95231009Y-91654285D02*
X95278628Y-91797142D01*
X95278628Y-91797142D02*
X95326247Y-91844761D01*
X95326247Y-91844761D02*
X95421485Y-91892380D01*
X95421485Y-91892380D02*
X95564342Y-91892380D01*
X95564342Y-91892380D02*
X95659580Y-91844761D01*
X95659580Y-91844761D02*
X95707200Y-91797142D01*
X95707200Y-91797142D02*
X95754819Y-91701904D01*
X95754819Y-91701904D02*
X95754819Y-91320952D01*
X95754819Y-91320952D02*
X94754819Y-91320952D01*
X94754819Y-91320952D02*
X94754819Y-91654285D01*
X94754819Y-91654285D02*
X94802438Y-91749523D01*
X94802438Y-91749523D02*
X94850057Y-91797142D01*
X94850057Y-91797142D02*
X94945295Y-91844761D01*
X94945295Y-91844761D02*
X95040533Y-91844761D01*
X95040533Y-91844761D02*
X95135771Y-91797142D01*
X95135771Y-91797142D02*
X95183390Y-91749523D01*
X95183390Y-91749523D02*
X95231009Y-91654285D01*
X95231009Y-91654285D02*
X95231009Y-91320952D01*
X94754819Y-92178095D02*
X94754819Y-92749523D01*
X95754819Y-92463809D02*
X94754819Y-92463809D01*
X95754819Y-93606666D02*
X95754819Y-93035238D01*
X95754819Y-93320952D02*
X94754819Y-93320952D01*
X94754819Y-93320952D02*
X94897676Y-93225714D01*
X94897676Y-93225714D02*
X94992914Y-93130476D01*
X94992914Y-93130476D02*
X95040533Y-93035238D01*
X169404819Y-88511904D02*
X169357200Y-88416666D01*
X169357200Y-88416666D02*
X169261961Y-88369047D01*
X169261961Y-88369047D02*
X168404819Y-88369047D01*
X169357200Y-89321428D02*
X169404819Y-89226190D01*
X169404819Y-89226190D02*
X169404819Y-89035714D01*
X169404819Y-89035714D02*
X169357200Y-88940476D01*
X169357200Y-88940476D02*
X169309580Y-88892857D01*
X169309580Y-88892857D02*
X169214342Y-88845238D01*
X169214342Y-88845238D02*
X168928628Y-88845238D01*
X168928628Y-88845238D02*
X168833390Y-88892857D01*
X168833390Y-88892857D02*
X168785771Y-88940476D01*
X168785771Y-88940476D02*
X168738152Y-89035714D01*
X168738152Y-89035714D02*
X168738152Y-89226190D01*
X168738152Y-89226190D02*
X168785771Y-89321428D01*
X169404819Y-90178571D02*
X168404819Y-90178571D01*
X169357200Y-90178571D02*
X169404819Y-90083333D01*
X169404819Y-90083333D02*
X169404819Y-89892857D01*
X169404819Y-89892857D02*
X169357200Y-89797619D01*
X169357200Y-89797619D02*
X169309580Y-89750000D01*
X169309580Y-89750000D02*
X169214342Y-89702381D01*
X169214342Y-89702381D02*
X168928628Y-89702381D01*
X168928628Y-89702381D02*
X168833390Y-89750000D01*
X168833390Y-89750000D02*
X168785771Y-89797619D01*
X168785771Y-89797619D02*
X168738152Y-89892857D01*
X168738152Y-89892857D02*
X168738152Y-90083333D01*
X168738152Y-90083333D02*
X168785771Y-90178571D01*
X169404819Y-91178571D02*
X169404819Y-90607143D01*
X169404819Y-90892857D02*
X168404819Y-90892857D01*
X168404819Y-90892857D02*
X168547676Y-90797619D01*
X168547676Y-90797619D02*
X168642914Y-90702381D01*
X168642914Y-90702381D02*
X168690533Y-90607143D01*
D11*
%TO.C,BT1*%
X96450000Y-87440000D02*
X99000000Y-84590000D01*
X96450000Y-100290000D02*
X96450000Y-87440000D01*
X99000000Y-84590000D02*
X102150000Y-84590000D01*
X102150000Y-84590000D02*
X104750000Y-87440000D01*
X104750000Y-87440000D02*
X104750000Y-100290000D01*
X104750000Y-100290000D02*
X96450000Y-100290000D01*
%TO.C,lcd1*%
X169750000Y-83150000D02*
X171000000Y-83150000D01*
X169750000Y-84400000D02*
X169750000Y-83150000D01*
X172300000Y-83450000D02*
X172300000Y-84200000D01*
X172300000Y-84200000D02*
X175250000Y-84200000D01*
X172300000Y-95300000D02*
X175250000Y-95300000D01*
X172300000Y-96050000D02*
X172300000Y-95300000D01*
X175250000Y-84200000D02*
X175250000Y-89750000D01*
X175250000Y-95300000D02*
X175250000Y-89750000D01*
X170040000Y-83440000D02*
X176010000Y-83440000D01*
X176010000Y-96060000D01*
X170040000Y-96060000D01*
X170040000Y-83440000D01*
X170050000Y-83450000D02*
X170800000Y-83450000D01*
X170800000Y-85250000D01*
X170050000Y-85250000D01*
X170050000Y-83450000D01*
X170050000Y-86750000D02*
X170800000Y-86750000D01*
X170800000Y-92750000D01*
X170050000Y-92750000D01*
X170050000Y-86750000D01*
X170050000Y-94250000D02*
X170800000Y-94250000D01*
X170800000Y-96050000D01*
X170050000Y-96050000D01*
X170050000Y-94250000D01*
%TD*%
M02*
