%TF.GenerationSoftware,KiCad,Pcbnew,9.0.8-9.0.8~ubuntu24.04.1*%
%TF.CreationDate,2026-05-04T20:39:50+03:00*%
%TF.ProjectId,PCB_mc,5043425f-6d63-42e6-9b69-6361645f7063,rev?*%
%TF.SameCoordinates,Original*%
%TF.FileFunction,Paste,Top*%
%TF.FilePolarity,Positive*%
%FSLAX46Y46*%
G04 Gerber Fmt 4.6, Leading zero omitted, Abs format (unit mm)*
G04 Created by KiCad (PCBNEW 9.0.8-9.0.8~ubuntu24.04.1) date 2026-05-04 20:39:50*
%MOMM*%
%LPD*%
G01*
G04 APERTURE LIST*
G04 Aperture macros list*
%AMRoundRect*
0 Rectangle with rounded corners*
0 $1 Rounding radius*
0 $2 $3 $4 $5 $6 $7 $8 $9 X,Y pos of 4 corners*
0 Add a 4 corners polygon primitive as box body*
4,1,4,$2,$3,$4,$5,$6,$7,$8,$9,$2,$3,0*
0 Add four circle primitives for the rounded corners*
1,1,$1+$1,$2,$3*
1,1,$1+$1,$4,$5*
1,1,$1+$1,$6,$7*
1,1,$1+$1,$8,$9*
0 Add four rect primitives between the rounded corners*
20,1,$1+$1,$2,$3,$4,$5,0*
20,1,$1+$1,$4,$5,$6,$7,0*
20,1,$1+$1,$6,$7,$8,$9,0*
20,1,$1+$1,$8,$9,$2,$3,0*%
G04 Aperture macros list end*
%ADD10RoundRect,0.250000X-0.255000X-0.440000X0.255000X-0.440000X0.255000X0.440000X-0.255000X0.440000X0*%
%ADD11RoundRect,0.150000X-0.825000X-0.150000X0.825000X-0.150000X0.825000X0.150000X-0.825000X0.150000X0*%
%ADD12R,0.900000X0.900000*%
%ADD13R,1.500000X0.900000*%
%ADD14R,0.900000X1.500000*%
%ADD15RoundRect,0.150000X-0.425000X0.150000X-0.425000X-0.150000X0.425000X-0.150000X0.425000X0.150000X0*%
%ADD16RoundRect,0.075000X-0.500000X0.075000X-0.500000X-0.075000X0.500000X-0.075000X0.500000X0.075000X0*%
%ADD17O,2.100000X1.000000*%
%ADD18O,1.800000X1.000000*%
%ADD19RoundRect,0.250000X0.650000X-0.412500X0.650000X0.412500X-0.650000X0.412500X-0.650000X-0.412500X0*%
%ADD20RoundRect,0.250001X-0.462499X-0.624999X0.462499X-0.624999X0.462499X0.624999X-0.462499X0.624999X0*%
%ADD21RoundRect,0.250000X-0.412500X-0.650000X0.412500X-0.650000X0.412500X0.650000X-0.412500X0.650000X0*%
%ADD22RoundRect,0.250000X0.625000X-0.400000X0.625000X0.400000X-0.625000X0.400000X-0.625000X-0.400000X0*%
%ADD23RoundRect,0.250000X-0.400000X-0.625000X0.400000X-0.625000X0.400000X0.625000X-0.400000X0.625000X0*%
%ADD24RoundRect,0.250001X0.624999X-0.462499X0.624999X0.462499X-0.624999X0.462499X-0.624999X-0.462499X0*%
%ADD25RoundRect,0.250000X0.400000X0.625000X-0.400000X0.625000X-0.400000X-0.625000X0.400000X-0.625000X0*%
%ADD26RoundRect,0.150000X-0.512500X-0.150000X0.512500X-0.150000X0.512500X0.150000X-0.512500X0.150000X0*%
%ADD27RoundRect,0.225000X0.375000X-0.225000X0.375000X0.225000X-0.375000X0.225000X-0.375000X-0.225000X0*%
G04 APERTURE END LIST*
D10*
%TO.C,U3*%
X121300000Y-98715000D03*
X121300000Y-100365000D03*
X122500000Y-98715000D03*
X122500000Y-100365000D03*
D11*
X119425000Y-97635000D03*
X119425000Y-98905000D03*
X119425000Y-100175000D03*
X119425000Y-101445000D03*
X124375000Y-101445000D03*
X124375000Y-100175000D03*
X124375000Y-98905000D03*
X124375000Y-97635000D03*
%TD*%
D12*
%TO.C,U1*%
X155100000Y-89060000D03*
X155100000Y-90460000D03*
X155100000Y-91860000D03*
X156500000Y-89060000D03*
X156500000Y-90460000D03*
X156500000Y-91860000D03*
X157900000Y-89060000D03*
X157900000Y-90460000D03*
X157900000Y-91860000D03*
D13*
X149250000Y-82740000D03*
X149250000Y-84010000D03*
X149250000Y-85280000D03*
X149250000Y-86550000D03*
X149250000Y-87820000D03*
X149250000Y-89090000D03*
X149250000Y-90360000D03*
X149250000Y-91630000D03*
X149250000Y-92900000D03*
X149250000Y-94170000D03*
X149250000Y-95440000D03*
X149250000Y-96710000D03*
X149250000Y-97980000D03*
X149250000Y-99250000D03*
D14*
X151015000Y-100500000D03*
X152285000Y-100500000D03*
X153555000Y-100500000D03*
X154825000Y-100500000D03*
X156095000Y-100500000D03*
X157365000Y-100500000D03*
X158635000Y-100500000D03*
X159905000Y-100500000D03*
X161175000Y-100500000D03*
X162445000Y-100500000D03*
X163715000Y-100500000D03*
X164985000Y-100500000D03*
D13*
X166750000Y-99250000D03*
X166750000Y-97980000D03*
X166750000Y-96710000D03*
X166750000Y-95440000D03*
X166750000Y-94170000D03*
X166750000Y-92900000D03*
X166750000Y-91630000D03*
X166750000Y-90360000D03*
X166750000Y-89090000D03*
X166750000Y-87820000D03*
X166750000Y-86550000D03*
X166750000Y-85280000D03*
X166750000Y-84010000D03*
X166750000Y-82740000D03*
%TD*%
D15*
%TO.C,J1*%
X99000000Y-111050000D03*
X99000000Y-111850000D03*
D16*
X99000000Y-113000000D03*
X99000000Y-114000000D03*
X99000000Y-114500000D03*
X99000000Y-115500000D03*
D15*
X99000000Y-116650000D03*
X99000000Y-117450000D03*
X99000000Y-117450000D03*
X99000000Y-116650000D03*
D16*
X99000000Y-116000000D03*
X99000000Y-115000000D03*
X99000000Y-113500000D03*
X99000000Y-112500000D03*
D15*
X99000000Y-111850000D03*
X99000000Y-111050000D03*
D17*
X98425000Y-109930000D03*
D18*
X94245000Y-109930000D03*
D17*
X98425000Y-118570000D03*
D18*
X94245000Y-118570000D03*
%TD*%
D19*
%TO.C,C4*%
X132000000Y-83902500D03*
X132000000Y-80777500D03*
%TD*%
D20*
%TO.C,F1*%
X108762500Y-87000000D03*
X111737500Y-87000000D03*
%TD*%
D21*
%TO.C,C6*%
X111975000Y-91340000D03*
X115100000Y-91340000D03*
%TD*%
D22*
%TO.C,R8*%
X135050000Y-91440000D03*
X135050000Y-88340000D03*
%TD*%
D23*
%TO.C,R6*%
X112000000Y-98840000D03*
X115100000Y-98840000D03*
%TD*%
D22*
%TO.C,R7*%
X129600000Y-91390000D03*
X129600000Y-88290000D03*
%TD*%
D24*
%TO.C,D2*%
X135100000Y-97890000D03*
X135100000Y-94915000D03*
%TD*%
D23*
%TO.C,R2*%
X103450000Y-117000000D03*
X106550000Y-117000000D03*
%TD*%
D25*
%TO.C,R4*%
X137300000Y-110000000D03*
X134200000Y-110000000D03*
%TD*%
D21*
%TO.C,C2*%
X143187500Y-117000000D03*
X146312500Y-117000000D03*
%TD*%
D24*
%TO.C,D1*%
X129600000Y-97877500D03*
X129600000Y-94902500D03*
%TD*%
D25*
%TO.C,R5*%
X146300000Y-110000000D03*
X143200000Y-110000000D03*
%TD*%
D19*
%TO.C,C7*%
X115000000Y-83812500D03*
X115000000Y-80687500D03*
%TD*%
D23*
%TO.C,R3*%
X120500000Y-91340000D03*
X123600000Y-91340000D03*
%TD*%
D21*
%TO.C,C3*%
X134187500Y-117000000D03*
X137312500Y-117000000D03*
%TD*%
D23*
%TO.C,R1*%
X103450000Y-112000000D03*
X106550000Y-112000000D03*
%TD*%
D26*
%TO.C,U2*%
X125325000Y-81340000D03*
X125325000Y-82290000D03*
X125325000Y-83240000D03*
X127600000Y-83240000D03*
X127600000Y-81340000D03*
%TD*%
D19*
%TO.C,C5*%
X120100000Y-83902500D03*
X120100000Y-80777500D03*
%TD*%
D27*
%TO.C,D3*%
X141000000Y-93150000D03*
X141000000Y-89850000D03*
%TD*%
%TO.C,D4*%
X145000000Y-93150000D03*
X145000000Y-89850000D03*
%TD*%
M02*
